<?xml version="1.0" encoding="UTF-8"?>
<svg xmlns="http://www.w3.org/2000/svg" width="880" height="240" viewBox="0 0 880 240" role="img" aria-label="Merged PRs daily chart">
  <style>
    .bg { fill: #161b22; }
    .border { fill: none; stroke: #30363d; stroke-width: 1; }
    .title { font: 600 14px -apple-system, BlinkMacSystemFont, 'Segoe UI', sans-serif; fill: #f0f6fc; }
    .subtitle { font: 500 11px -apple-system, BlinkMacSystemFont, 'Segoe UI', sans-serif; fill: #8b949e; }
    .tick { font: 500 11px -apple-system, BlinkMacSystemFont, 'Segoe UI', sans-serif; fill: #8b949e; }
    .grid { stroke: #21262d; stroke-width: 1; }
    .axis-line { stroke: #30363d; stroke-width: 1; }
  </style>
  <rect class="bg" x="0" y="0" width="880" height="240" rx="8" ry="8"/>
  <rect class="border" x="0.5" y="0.5" width="879" height="239" rx="8" ry="8"/>

  <text class="title" x="18" y="24">Merged PRs (daily)</text>
  <text class="subtitle" x="18" y="40">total 342 · 30d 61 · 7d 9</text>
  <line class="grid" x1="46" x2="862" y1="200.00" y2="200.00"/>
  <text class="tick" x="38" y="204.00" text-anchor="end">0</text>
  <line class="grid" x1="46" x2="862" y1="169.20" y2="169.20"/>
  <text class="tick" x="38" y="173.20" text-anchor="end">2</text>
  <line class="grid" x1="46" x2="862" y1="138.40" y2="138.40"/>
  <text class="tick" x="38" y="142.40" text-anchor="end">4</text>
  <line class="grid" x1="46" x2="862" y1="107.60" y2="107.60"/>
  <text class="tick" x="38" y="111.60" text-anchor="end">6</text>
  <line class="grid" x1="46" x2="862" y1="76.80" y2="76.80"/>
  <text class="tick" x="38" y="80.80" text-anchor="end">8</text>
  <line class="grid" x1="46" x2="862" y1="46.00" y2="46.00"/>
  <text class="tick" x="38" y="50.00" text-anchor="end">10</text>
  <line class="axis-line" x1="46" x2="46" y1="46" y2="200"/>
  <line class="axis-line" x1="46" x2="862" y1="200" y2="200"/>
  <rect x="47.44" y="184.60" width="1.32" height="15.40" fill="#1f6feb"><title>2024-10-04: 1</title></rect><rect x="64.71" y="184.60" width="1.32" height="15.40" fill="#1f6feb"><title>2024-10-16: 1</title></rect><rect x="66.15" y="169.20" width="1.32" height="30.80" fill="#1f6feb"><title>2024-10-17: 2</title></rect><rect x="73.34" y="169.20" width="1.32" height="30.80" fill="#1f6feb"><title>2024-10-22: 2</title></rect><rect x="76.22" y="169.20" width="1.32" height="30.80" fill="#1f6feb"><title>2024-10-24: 2</title></rect><rect x="84.86" y="153.80" width="1.32" height="46.20" fill="#1f6feb"><title>2024-10-30: 3</title></rect><rect x="86.30" y="184.60" width="1.32" height="15.40" fill="#1f6feb"><title>2024-10-31: 1</title></rect><rect x="87.74" y="153.80" width="1.32" height="46.20" fill="#1f6feb"><title>2024-11-01: 3</title></rect><rect x="94.93" y="107.60" width="1.32" height="92.40" fill="#1f6feb"><title>2024-11-06: 6</title></rect><rect x="96.37" y="184.60" width="1.32" height="15.40" fill="#1f6feb"><title>2024-11-07: 1</title></rect><rect x="102.13" y="184.60" width="1.32" height="15.40" fill="#1f6feb"><title>2024-11-11: 1</title></rect><rect x="103.57" y="107.60" width="1.32" height="92.40" fill="#1f6feb"><title>2024-11-12: 6</title></rect><rect x="105.01" y="169.20" width="1.32" height="30.80" fill="#1f6feb"><title>2024-11-13: 2</title></rect><rect x="106.44" y="153.80" width="1.32" height="46.20" fill="#1f6feb"><title>2024-11-14: 3</title></rect><rect x="107.88" y="184.60" width="1.32" height="15.40" fill="#1f6feb"><title>2024-11-15: 1</title></rect><rect x="112.20" y="138.40" width="1.32" height="61.60" fill="#1f6feb"><title>2024-11-18: 4</title></rect><rect x="113.64" y="169.20" width="1.32" height="30.80" fill="#1f6feb"><title>2024-11-19: 2</title></rect><rect x="115.08" y="184.60" width="1.32" height="15.40" fill="#1f6feb"><title>2024-11-20: 1</title></rect><rect x="123.71" y="107.60" width="1.32" height="92.40" fill="#1f6feb"><title>2024-11-26: 6</title></rect><rect x="125.15" y="169.20" width="1.32" height="30.80" fill="#1f6feb"><title>2024-11-27: 2</title></rect><rect x="128.03" y="184.60" width="1.32" height="15.40" fill="#1f6feb"><title>2024-11-29: 1</title></rect><rect x="143.86" y="184.60" width="1.32" height="15.40" fill="#1f6feb"><title>2024-12-10: 1</title></rect><rect x="155.38" y="184.60" width="1.32" height="15.40" fill="#1f6feb"><title>2024-12-18: 1</title></rect><rect x="156.81" y="169.20" width="1.32" height="30.80" fill="#1f6feb"><title>2024-12-19: 2</title></rect><rect x="158.25" y="184.60" width="1.32" height="15.40" fill="#1f6feb"><title>2024-12-20: 1</title></rect><rect x="162.57" y="153.80" width="1.32" height="46.20" fill="#1f6feb"><title>2024-12-23: 3</title></rect><rect x="184.16" y="184.60" width="1.32" height="15.40" fill="#1f6feb"><title>2025-01-07: 1</title></rect><rect x="185.60" y="184.60" width="1.32" height="15.40" fill="#1f6feb"><title>2025-01-08: 1</title></rect><rect x="187.04" y="169.20" width="1.32" height="30.80" fill="#1f6feb"><title>2025-01-09: 2</title></rect><rect x="194.23" y="184.60" width="1.32" height="15.40" fill="#1f6feb"><title>2025-01-14: 1</title></rect><rect x="214.38" y="169.20" width="1.32" height="30.80" fill="#1f6feb"><title>2025-01-28: 2</title></rect><rect x="225.89" y="169.20" width="1.32" height="30.80" fill="#1f6feb"><title>2025-02-05: 2</title></rect><rect x="227.33" y="184.60" width="1.32" height="15.40" fill="#1f6feb"><title>2025-02-06: 1</title></rect><rect x="235.97" y="169.20" width="1.32" height="30.80" fill="#1f6feb"><title>2025-02-12: 2</title></rect><rect x="238.85" y="169.20" width="1.32" height="30.80" fill="#1f6feb"><title>2025-02-14: 2</title></rect><rect x="264.75" y="184.60" width="1.32" height="15.40" fill="#1f6feb"><title>2025-03-04: 1</title></rect><rect x="276.26" y="169.20" width="1.32" height="30.80" fill="#1f6feb"><title>2025-03-12: 2</title></rect><rect x="283.46" y="153.80" width="1.32" height="46.20" fill="#1f6feb"><title>2025-03-17: 3</title></rect><rect x="286.34" y="169.20" width="1.32" height="30.80" fill="#1f6feb"><title>2025-03-19: 2</title></rect><rect x="296.41" y="153.80" width="1.32" height="46.20" fill="#1f6feb"><title>2025-03-26: 3</title></rect><rect x="306.49" y="184.60" width="1.32" height="15.40" fill="#1f6feb"><title>2025-04-02: 1</title></rect><rect x="313.68" y="153.80" width="1.32" height="46.20" fill="#1f6feb"><title>2025-04-07: 3</title></rect><rect x="315.12" y="184.60" width="1.32" height="15.40" fill="#1f6feb"><title>2025-04-08: 1</title></rect><rect x="325.20" y="184.60" width="1.32" height="15.40" fill="#1f6feb"><title>2025-04-15: 1</title></rect><rect x="328.07" y="184.60" width="1.32" height="15.40" fill="#1f6feb"><title>2025-04-17: 1</title></rect><rect x="329.51" y="184.60" width="1.32" height="15.40" fill="#1f6feb"><title>2025-04-18: 1</title></rect><rect x="335.27" y="184.60" width="1.32" height="15.40" fill="#1f6feb"><title>2025-04-22: 1</title></rect><rect x="346.78" y="169.20" width="1.32" height="30.80" fill="#1f6feb"><title>2025-04-30: 2</title></rect><rect x="348.22" y="153.80" width="1.32" height="46.20" fill="#1f6feb"><title>2025-05-01: 3</title></rect><rect x="368.37" y="169.20" width="1.32" height="30.80" fill="#1f6feb"><title>2025-05-15: 2</title></rect><rect x="369.81" y="184.60" width="1.32" height="15.40" fill="#1f6feb"><title>2025-05-16: 1</title></rect><rect x="375.57" y="169.20" width="1.32" height="30.80" fill="#1f6feb"><title>2025-05-20: 2</title></rect><rect x="378.44" y="169.20" width="1.32" height="30.80" fill="#1f6feb"><title>2025-05-22: 2</title></rect><rect x="385.64" y="184.60" width="1.32" height="15.40" fill="#1f6feb"><title>2025-05-27: 1</title></rect><rect x="397.15" y="184.60" width="1.32" height="15.40" fill="#1f6feb"><title>2025-06-04: 1</title></rect><rect x="401.47" y="153.80" width="1.32" height="46.20" fill="#1f6feb"><title>2025-06-07: 3</title></rect><rect x="407.23" y="184.60" width="1.32" height="15.40" fill="#1f6feb"><title>2025-06-11: 1</title></rect><rect x="414.42" y="169.20" width="1.32" height="30.80" fill="#1f6feb"><title>2025-06-16: 2</title></rect><rect x="415.86" y="184.60" width="1.32" height="15.40" fill="#1f6feb"><title>2025-06-17: 1</title></rect><rect x="417.30" y="169.20" width="1.32" height="30.80" fill="#1f6feb"><title>2025-06-18: 2</title></rect><rect x="420.18" y="184.60" width="1.32" height="15.40" fill="#1f6feb"><title>2025-06-20: 1</title></rect><rect x="424.50" y="184.60" width="1.32" height="15.40" fill="#1f6feb"><title>2025-06-23: 1</title></rect><rect x="425.94" y="169.20" width="1.32" height="30.80" fill="#1f6feb"><title>2025-06-24: 2</title></rect><rect x="427.38" y="153.80" width="1.32" height="46.20" fill="#1f6feb"><title>2025-06-25: 3</title></rect><rect x="428.81" y="169.20" width="1.32" height="30.80" fill="#1f6feb"><title>2025-06-26: 2</title></rect><rect x="434.57" y="184.60" width="1.32" height="15.40" fill="#1f6feb"><title>2025-06-30: 1</title></rect><rect x="436.01" y="184.60" width="1.32" height="15.40" fill="#1f6feb"><title>2025-07-01: 1</title></rect><rect x="437.45" y="153.80" width="1.32" height="46.20" fill="#1f6feb"><title>2025-07-02: 3</title></rect><rect x="438.89" y="184.60" width="1.32" height="15.40" fill="#1f6feb"><title>2025-07-03: 1</title></rect><rect x="440.33" y="184.60" width="1.32" height="15.40" fill="#1f6feb"><title>2025-07-04: 1</title></rect><rect x="446.08" y="184.60" width="1.32" height="15.40" fill="#1f6feb"><title>2025-07-08: 1</title></rect><rect x="448.96" y="153.80" width="1.32" height="46.20" fill="#1f6feb"><title>2025-07-10: 3</title></rect><rect x="456.16" y="184.60" width="1.32" height="15.40" fill="#1f6feb"><title>2025-07-15: 1</title></rect><rect x="460.48" y="184.60" width="1.32" height="15.40" fill="#1f6feb"><title>2025-07-18: 1</title></rect><rect x="467.67" y="184.60" width="1.32" height="15.40" fill="#1f6feb"><title>2025-07-23: 1</title></rect><rect x="469.11" y="169.20" width="1.32" height="30.80" fill="#1f6feb"><title>2025-07-24: 2</title></rect><rect x="470.55" y="184.60" width="1.32" height="15.40" fill="#1f6feb"><title>2025-07-25: 1</title></rect><rect x="476.31" y="153.80" width="1.32" height="46.20" fill="#1f6feb"><title>2025-07-29: 3</title></rect><rect x="489.26" y="169.20" width="1.32" height="30.80" fill="#1f6feb"><title>2025-08-07: 2</title></rect><rect x="490.70" y="169.20" width="1.32" height="30.80" fill="#1f6feb"><title>2025-08-08: 2</title></rect><rect x="497.89" y="184.60" width="1.32" height="15.40" fill="#1f6feb"><title>2025-08-13: 1</title></rect><rect x="499.33" y="184.60" width="1.32" height="15.40" fill="#1f6feb"><title>2025-08-14: 1</title></rect><rect x="507.97" y="184.60" width="1.32" height="15.40" fill="#1f6feb"><title>2025-08-20: 1</title></rect><rect x="509.41" y="184.60" width="1.32" height="15.40" fill="#1f6feb"><title>2025-08-21: 1</title></rect><rect x="516.60" y="169.20" width="1.32" height="30.80" fill="#1f6feb"><title>2025-08-26: 2</title></rect><rect x="518.04" y="184.60" width="1.32" height="15.40" fill="#1f6feb"><title>2025-08-27: 1</title></rect><rect x="519.48" y="107.60" width="1.32" height="92.40" fill="#1f6feb"><title>2025-08-28: 6</title></rect><rect x="520.92" y="184.60" width="1.32" height="15.40" fill="#1f6feb"><title>2025-08-29: 1</title></rect><rect x="525.24" y="184.60" width="1.32" height="15.40" fill="#1f6feb"><title>2025-09-01: 1</title></rect><rect x="526.68" y="138.40" width="1.32" height="61.60" fill="#1f6feb"><title>2025-09-02: 4</title></rect><rect x="528.12" y="169.20" width="1.32" height="30.80" fill="#1f6feb"><title>2025-09-03: 2</title></rect><rect x="529.56" y="153.80" width="1.32" height="46.20" fill="#1f6feb"><title>2025-09-04: 3</title></rect><rect x="530.99" y="184.60" width="1.32" height="15.40" fill="#1f6feb"><title>2025-09-05: 1</title></rect><rect x="535.31" y="153.80" width="1.32" height="46.20" fill="#1f6feb"><title>2025-09-08: 3</title></rect><rect x="536.75" y="169.20" width="1.32" height="30.80" fill="#1f6feb"><title>2025-09-09: 2</title></rect><rect x="546.83" y="169.20" width="1.32" height="30.80" fill="#1f6feb"><title>2025-09-16: 2</title></rect><rect x="548.26" y="184.60" width="1.32" height="15.40" fill="#1f6feb"><title>2025-09-17: 1</title></rect><rect x="549.70" y="169.20" width="1.32" height="30.80" fill="#1f6feb"><title>2025-09-18: 2</title></rect><rect x="551.14" y="184.60" width="1.32" height="15.40" fill="#1f6feb"><title>2025-09-19: 1</title></rect><rect x="559.78" y="123.00" width="1.32" height="77.00" fill="#1f6feb"><title>2025-09-25: 5</title></rect><rect x="561.22" y="153.80" width="1.32" height="46.20" fill="#1f6feb"><title>2025-09-26: 3</title></rect><rect x="566.97" y="169.20" width="1.32" height="30.80" fill="#1f6feb"><title>2025-09-30: 2</title></rect><rect x="568.41" y="169.20" width="1.32" height="30.80" fill="#1f6feb"><title>2025-10-01: 2</title></rect><rect x="569.85" y="184.60" width="1.32" height="15.40" fill="#1f6feb"><title>2025-10-02: 1</title></rect><rect x="574.17" y="184.60" width="1.32" height="15.40" fill="#1f6feb"><title>2025-10-05: 1</title></rect><rect x="575.61" y="184.60" width="1.32" height="15.40" fill="#1f6feb"><title>2025-10-06: 1</title></rect><rect x="579.93" y="184.60" width="1.32" height="15.40" fill="#1f6feb"><title>2025-10-09: 1</title></rect><rect x="587.12" y="169.20" width="1.32" height="30.80" fill="#1f6feb"><title>2025-10-14: 2</title></rect><rect x="588.56" y="169.20" width="1.32" height="30.80" fill="#1f6feb"><title>2025-10-15: 2</title></rect><rect x="601.51" y="184.60" width="1.32" height="15.40" fill="#1f6feb"><title>2025-10-24: 1</title></rect><rect x="607.27" y="153.80" width="1.32" height="46.20" fill="#1f6feb"><title>2025-10-28: 3</title></rect><rect x="608.71" y="184.60" width="1.32" height="15.40" fill="#1f6feb"><title>2025-10-29: 1</title></rect><rect x="611.59" y="169.20" width="1.32" height="30.80" fill="#1f6feb"><title>2025-10-31: 2</title></rect><rect x="618.78" y="184.60" width="1.32" height="15.40" fill="#1f6feb"><title>2025-11-05: 1</title></rect><rect x="620.22" y="184.60" width="1.32" height="15.40" fill="#1f6feb"><title>2025-11-06: 1</title></rect><rect x="621.66" y="169.20" width="1.32" height="30.80" fill="#1f6feb"><title>2025-11-07: 2</title></rect><rect x="627.42" y="169.20" width="1.32" height="30.80" fill="#1f6feb"><title>2025-11-11: 2</title></rect><rect x="628.86" y="169.20" width="1.32" height="30.80" fill="#1f6feb"><title>2025-11-12: 2</title></rect><rect x="630.30" y="169.20" width="1.32" height="30.80" fill="#1f6feb"><title>2025-11-13: 2</title></rect><rect x="631.74" y="169.20" width="1.32" height="30.80" fill="#1f6feb"><title>2025-11-14: 2</title></rect><rect x="637.49" y="184.60" width="1.32" height="15.40" fill="#1f6feb"><title>2025-11-18: 1</title></rect><rect x="638.93" y="184.60" width="1.32" height="15.40" fill="#1f6feb"><title>2025-11-19: 1</title></rect><rect x="650.44" y="184.60" width="1.32" height="15.40" fill="#1f6feb"><title>2025-11-27: 1</title></rect><rect x="659.08" y="153.80" width="1.32" height="46.20" fill="#1f6feb"><title>2025-12-03: 3</title></rect><rect x="660.52" y="169.20" width="1.32" height="30.80" fill="#1f6feb"><title>2025-12-04: 2</title></rect><rect x="661.96" y="169.20" width="1.32" height="30.80" fill="#1f6feb"><title>2025-12-05: 2</title></rect><rect x="666.28" y="184.60" width="1.32" height="15.40" fill="#1f6feb"><title>2025-12-08: 1</title></rect><rect x="672.03" y="184.60" width="1.32" height="15.40" fill="#1f6feb"><title>2025-12-12: 1</title></rect><rect x="676.35" y="184.60" width="1.32" height="15.40" fill="#1f6feb"><title>2025-12-15: 1</title></rect><rect x="682.11" y="169.20" width="1.32" height="30.80" fill="#1f6feb"><title>2025-12-19: 2</title></rect><rect x="719.52" y="184.60" width="1.32" height="15.40" fill="#1f6feb"><title>2026-01-14: 1</title></rect><rect x="720.96" y="184.60" width="1.32" height="15.40" fill="#1f6feb"><title>2026-01-15: 1</title></rect><rect x="722.40" y="169.20" width="1.32" height="30.80" fill="#1f6feb"><title>2026-01-16: 2</title></rect><rect x="726.72" y="184.60" width="1.32" height="15.40" fill="#1f6feb"><title>2026-01-19: 1</title></rect><rect x="729.60" y="184.60" width="1.32" height="15.40" fill="#1f6feb"><title>2026-01-21: 1</title></rect><rect x="731.04" y="184.60" width="1.32" height="15.40" fill="#1f6feb"><title>2026-01-22: 1</title></rect><rect x="732.48" y="184.60" width="1.32" height="15.40" fill="#1f6feb"><title>2026-01-23: 1</title></rect><rect x="736.79" y="184.60" width="1.32" height="15.40" fill="#1f6feb"><title>2026-01-26: 1</title></rect><rect x="738.23" y="184.60" width="1.32" height="15.40" fill="#1f6feb"><title>2026-01-27: 1</title></rect><rect x="742.55" y="184.60" width="1.32" height="15.40" fill="#1f6feb"><title>2026-01-30: 1</title></rect><rect x="746.87" y="169.20" width="1.32" height="30.80" fill="#1f6feb"><title>2026-02-02: 2</title></rect><rect x="748.31" y="184.60" width="1.32" height="15.40" fill="#1f6feb"><title>2026-02-03: 1</title></rect><rect x="756.94" y="184.60" width="1.32" height="15.40" fill="#1f6feb"><title>2026-02-09: 1</title></rect><rect x="758.38" y="184.60" width="1.32" height="15.40" fill="#1f6feb"><title>2026-02-10: 1</title></rect><rect x="761.26" y="184.60" width="1.32" height="15.40" fill="#1f6feb"><title>2026-02-12: 1</title></rect><rect x="767.02" y="184.60" width="1.32" height="15.40" fill="#1f6feb"><title>2026-02-16: 1</title></rect><rect x="768.46" y="169.20" width="1.32" height="30.80" fill="#1f6feb"><title>2026-02-17: 2</title></rect><rect x="771.33" y="184.60" width="1.32" height="15.40" fill="#1f6feb"><title>2026-02-19: 1</title></rect><rect x="772.77" y="184.60" width="1.32" height="15.40" fill="#1f6feb"><title>2026-02-20: 1</title></rect><rect x="781.41" y="184.60" width="1.32" height="15.40" fill="#1f6feb"><title>2026-02-26: 1</title></rect><rect x="782.85" y="169.20" width="1.32" height="30.80" fill="#1f6feb"><title>2026-02-27: 2</title></rect><rect x="787.16" y="169.20" width="1.32" height="30.80" fill="#1f6feb"><title>2026-03-02: 2</title></rect><rect x="788.60" y="184.60" width="1.32" height="15.40" fill="#1f6feb"><title>2026-03-03: 1</title></rect><rect x="791.48" y="184.60" width="1.32" height="15.40" fill="#1f6feb"><title>2026-03-05: 1</title></rect><rect x="792.92" y="184.60" width="1.32" height="15.40" fill="#1f6feb"><title>2026-03-06: 1</title></rect><rect x="797.24" y="184.60" width="1.32" height="15.40" fill="#1f6feb"><title>2026-03-09: 1</title></rect><rect x="798.68" y="169.20" width="1.32" height="30.80" fill="#1f6feb"><title>2026-03-10: 2</title></rect><rect x="800.12" y="184.60" width="1.32" height="15.40" fill="#1f6feb"><title>2026-03-11: 1</title></rect><rect x="801.56" y="169.20" width="1.32" height="30.80" fill="#1f6feb"><title>2026-03-12: 2</title></rect><rect x="807.31" y="169.20" width="1.32" height="30.80" fill="#1f6feb"><title>2026-03-16: 2</title></rect><rect x="808.75" y="169.20" width="1.32" height="30.80" fill="#1f6feb"><title>2026-03-17: 2</title></rect><rect x="810.19" y="184.60" width="1.32" height="15.40" fill="#1f6feb"><title>2026-03-18: 1</title></rect><rect x="811.63" y="184.60" width="1.32" height="15.40" fill="#1f6feb"><title>2026-03-19: 1</title></rect><rect x="817.39" y="184.60" width="1.32" height="15.40" fill="#1f6feb"><title>2026-03-23: 1</title></rect><rect x="818.83" y="153.80" width="1.32" height="46.20" fill="#1f6feb"><title>2026-03-24: 3</title></rect><rect x="820.26" y="169.20" width="1.32" height="30.80" fill="#1f6feb"><title>2026-03-25: 2</title></rect><rect x="821.70" y="169.20" width="1.32" height="30.80" fill="#1f6feb"><title>2026-03-26: 2</title></rect><rect x="823.14" y="123.00" width="1.32" height="77.00" fill="#1f6feb"><title>2026-03-27: 5</title></rect><rect x="827.46" y="153.80" width="1.32" height="46.20" fill="#1f6feb"><title>2026-03-30: 3</title></rect><rect x="828.90" y="153.80" width="1.32" height="46.20" fill="#1f6feb"><title>2026-03-31: 3</title></rect><rect x="831.78" y="138.40" width="1.32" height="61.60" fill="#1f6feb"><title>2026-04-02: 4</title></rect><rect x="833.22" y="92.20" width="1.32" height="107.80" fill="#1f6feb"><title>2026-04-03: 7</title></rect><rect x="837.53" y="169.20" width="1.32" height="30.80" fill="#1f6feb"><title>2026-04-06: 2</title></rect><rect x="838.97" y="107.60" width="1.32" height="92.40" fill="#1f6feb"><title>2026-04-07: 6</title></rect><rect x="840.41" y="123.00" width="1.32" height="77.00" fill="#1f6feb"><title>2026-04-08: 5</title></rect><rect x="841.85" y="107.60" width="1.32" height="92.40" fill="#1f6feb"><title>2026-04-09: 6</title></rect><rect x="843.29" y="184.60" width="1.32" height="15.40" fill="#1f6feb"><title>2026-04-10: 1</title></rect><rect x="847.61" y="169.20" width="1.32" height="30.80" fill="#1f6feb"><title>2026-04-13: 2</title></rect><rect x="853.37" y="184.60" width="1.32" height="15.40" fill="#1f6feb"><title>2026-04-17: 1</title></rect><rect x="857.68" y="153.80" width="1.32" height="46.20" fill="#1f6feb"><title>2026-04-20: 3</title></rect><rect x="859.12" y="123.00" width="1.32" height="77.00" fill="#1f6feb"><title>2026-04-21: 5</title></rect>
  <line class="grid" x1="46.00" x2="46.00" y1="46" y2="200"/>
  <text class="tick" x="46.00" y="218" text-anchor="middle">Oct 24</text>
  <line class="grid" x1="87.74" x2="87.74" y1="46" y2="200"/>
  <line class="grid" x1="130.91" x2="130.91" y1="46" y2="200"/>
  <text class="tick" x="130.91" y="218" text-anchor="middle">Dec 24</text>
  <line class="grid" x1="175.52" x2="175.52" y1="46" y2="200"/>
  <line class="grid" x1="220.14" x2="220.14" y1="46" y2="200"/>
  <text class="tick" x="220.14" y="218" text-anchor="middle">Feb 25</text>
  <line class="grid" x1="260.43" x2="260.43" y1="46" y2="200"/>
  <line class="grid" x1="305.05" x2="305.05" y1="46" y2="200"/>
  <text class="tick" x="305.05" y="218" text-anchor="middle">Apr 25</text>
  <line class="grid" x1="348.22" x2="348.22" y1="46" y2="200"/>
  <line class="grid" x1="392.84" x2="392.84" y1="46" y2="200"/>
  <text class="tick" x="392.84" y="218" text-anchor="middle">Jun 25</text>
  <line class="grid" x1="436.01" x2="436.01" y1="46" y2="200"/>
  <line class="grid" x1="480.62" x2="480.62" y1="46" y2="200"/>
  <text class="tick" x="480.62" y="218" text-anchor="middle">Aug 25</text>
  <line class="grid" x1="525.24" x2="525.24" y1="46" y2="200"/>
  <line class="grid" x1="568.41" x2="568.41" y1="46" y2="200"/>
  <text class="tick" x="568.41" y="218" text-anchor="middle">Oct 25</text>
  <line class="grid" x1="613.03" x2="613.03" y1="46" y2="200"/>
  <line class="grid" x1="656.20" x2="656.20" y1="46" y2="200"/>
  <text class="tick" x="656.20" y="218" text-anchor="middle">Dec 25</text>
  <line class="grid" x1="700.81" x2="700.81" y1="46" y2="200"/>
  <line class="grid" x1="745.43" x2="745.43" y1="46" y2="200"/>
  <text class="tick" x="745.43" y="218" text-anchor="middle">Feb 26</text>
  <line class="grid" x1="785.72" x2="785.72" y1="46" y2="200"/>
  <line class="grid" x1="830.34" x2="830.34" y1="46" y2="200"/>
  <text class="tick" x="830.34" y="218" text-anchor="middle">Apr 26</text>
</svg>
