<?xml version="1.0" encoding="UTF-8"?>
<svg xmlns="http://www.w3.org/2000/svg" width="880" height="240" viewBox="0 0 880 240" role="img" aria-label="Closed Issues daily chart">
  <style>
    .bg { fill: #161b22; }
    .border { fill: none; stroke: #30363d; stroke-width: 1; }
    .title { font: 600 14px -apple-system, BlinkMacSystemFont, 'Segoe UI', sans-serif; fill: #f0f6fc; }
    .subtitle { font: 500 11px -apple-system, BlinkMacSystemFont, 'Segoe UI', sans-serif; fill: #8b949e; }
    .tick { font: 500 11px -apple-system, BlinkMacSystemFont, 'Segoe UI', sans-serif; fill: #8b949e; }
    .grid { stroke: #21262d; stroke-width: 1; }
    .axis-line { stroke: #30363d; stroke-width: 1; }
  </style>
  <rect class="bg" x="0" y="0" width="880" height="240" rx="8" ry="8"/>
  <rect class="border" x="0.5" y="0.5" width="879" height="239" rx="8" ry="8"/>

  <text class="title" x="18" y="24">Closed Issues (daily)</text>
  <text class="subtitle" x="18" y="40">total 150 · 30d 91 · 7d 12</text>
  <line class="grid" x1="46" x2="862" y1="200.00" y2="200.00"/>
  <text class="tick" x="38" y="204.00" text-anchor="end">0</text>
  <line class="grid" x1="46" x2="862" y1="169.20" y2="169.20"/>
  <text class="tick" x="38" y="173.20" text-anchor="end">4</text>
  <line class="grid" x1="46" x2="862" y1="138.40" y2="138.40"/>
  <text class="tick" x="38" y="142.40" text-anchor="end">8</text>
  <line class="grid" x1="46" x2="862" y1="107.60" y2="107.60"/>
  <text class="tick" x="38" y="111.60" text-anchor="end">12</text>
  <line class="grid" x1="46" x2="862" y1="76.80" y2="76.80"/>
  <text class="tick" x="38" y="80.80" text-anchor="end">16</text>
  <line class="grid" x1="46" x2="862" y1="46.00" y2="46.00"/>
  <text class="tick" x="38" y="50.00" text-anchor="end">20</text>
  <line class="axis-line" x1="46" x2="46" y1="46" y2="200"/>
  <line class="axis-line" x1="46" x2="862" y1="200" y2="200"/>
  <rect x="719.52" y="192.30" width="1.32" height="7.70" fill="#8957e5"><title>2026-01-14: 1</title></rect><rect x="720.96" y="192.30" width="1.32" height="7.70" fill="#8957e5"><title>2026-01-15: 1</title></rect><rect x="722.40" y="192.30" width="1.32" height="7.70" fill="#8957e5"><title>2026-01-16: 1</title></rect><rect x="726.72" y="192.30" width="1.32" height="7.70" fill="#8957e5"><title>2026-01-19: 1</title></rect><rect x="729.60" y="184.60" width="1.32" height="15.40" fill="#8957e5"><title>2026-01-21: 2</title></rect><rect x="731.04" y="192.30" width="1.32" height="7.70" fill="#8957e5"><title>2026-01-22: 1</title></rect><rect x="732.48" y="192.30" width="1.32" height="7.70" fill="#8957e5"><title>2026-01-23: 1</title></rect><rect x="736.79" y="192.30" width="1.32" height="7.70" fill="#8957e5"><title>2026-01-26: 1</title></rect><rect x="738.23" y="161.50" width="1.32" height="38.50" fill="#8957e5"><title>2026-01-27: 5</title></rect><rect x="739.67" y="176.90" width="1.32" height="23.10" fill="#8957e5"><title>2026-01-28: 3</title></rect><rect x="742.55" y="192.30" width="1.32" height="7.70" fill="#8957e5"><title>2026-01-30: 1</title></rect><rect x="746.87" y="184.60" width="1.32" height="15.40" fill="#8957e5"><title>2026-02-02: 2</title></rect><rect x="748.31" y="192.30" width="1.32" height="7.70" fill="#8957e5"><title>2026-02-03: 1</title></rect><rect x="751.19" y="169.20" width="1.32" height="30.80" fill="#8957e5"><title>2026-02-05: 4</title></rect><rect x="758.38" y="192.30" width="1.32" height="7.70" fill="#8957e5"><title>2026-02-10: 1</title></rect><rect x="761.26" y="176.90" width="1.32" height="23.10" fill="#8957e5"><title>2026-02-12: 3</title></rect><rect x="767.02" y="184.60" width="1.32" height="15.40" fill="#8957e5"><title>2026-02-16: 2</title></rect><rect x="768.46" y="184.60" width="1.32" height="15.40" fill="#8957e5"><title>2026-02-17: 2</title></rect><rect x="771.33" y="176.90" width="1.32" height="23.10" fill="#8957e5"><title>2026-02-19: 3</title></rect><rect x="772.77" y="192.30" width="1.32" height="7.70" fill="#8957e5"><title>2026-02-20: 1</title></rect><rect x="782.85" y="192.30" width="1.32" height="7.70" fill="#8957e5"><title>2026-02-27: 1</title></rect><rect x="787.16" y="184.60" width="1.32" height="15.40" fill="#8957e5"><title>2026-03-02: 2</title></rect><rect x="788.60" y="192.30" width="1.32" height="7.70" fill="#8957e5"><title>2026-03-03: 1</title></rect><rect x="791.48" y="192.30" width="1.32" height="7.70" fill="#8957e5"><title>2026-03-05: 1</title></rect><rect x="797.24" y="192.30" width="1.32" height="7.70" fill="#8957e5"><title>2026-03-09: 1</title></rect><rect x="798.68" y="192.30" width="1.32" height="7.70" fill="#8957e5"><title>2026-03-10: 1</title></rect><rect x="800.12" y="192.30" width="1.32" height="7.70" fill="#8957e5"><title>2026-03-11: 1</title></rect><rect x="801.56" y="184.60" width="1.32" height="15.40" fill="#8957e5"><title>2026-03-12: 2</title></rect><rect x="807.31" y="169.20" width="1.32" height="30.80" fill="#8957e5"><title>2026-03-16: 4</title></rect><rect x="808.75" y="192.30" width="1.32" height="7.70" fill="#8957e5"><title>2026-03-17: 1</title></rect><rect x="810.19" y="176.90" width="1.32" height="23.10" fill="#8957e5"><title>2026-03-18: 3</title></rect><rect x="811.63" y="169.20" width="1.32" height="30.80" fill="#8957e5"><title>2026-03-19: 4</title></rect><rect x="817.39" y="192.30" width="1.32" height="7.70" fill="#8957e5"><title>2026-03-23: 1</title></rect><rect x="818.83" y="161.50" width="1.32" height="38.50" fill="#8957e5"><title>2026-03-24: 5</title></rect><rect x="820.26" y="176.90" width="1.32" height="23.10" fill="#8957e5"><title>2026-03-25: 3</title></rect><rect x="821.70" y="184.60" width="1.32" height="15.40" fill="#8957e5"><title>2026-03-26: 2</title></rect><rect x="823.14" y="169.20" width="1.32" height="30.80" fill="#8957e5"><title>2026-03-27: 4</title></rect><rect x="827.46" y="169.20" width="1.32" height="30.80" fill="#8957e5"><title>2026-03-30: 4</title></rect><rect x="828.90" y="161.50" width="1.32" height="38.50" fill="#8957e5"><title>2026-03-31: 5</title></rect><rect x="830.34" y="192.30" width="1.32" height="7.70" fill="#8957e5"><title>2026-04-01: 1</title></rect><rect x="831.78" y="176.90" width="1.32" height="23.10" fill="#8957e5"><title>2026-04-02: 3</title></rect><rect x="833.22" y="123.00" width="1.32" height="77.00" fill="#8957e5"><title>2026-04-03: 10</title></rect><rect x="837.53" y="184.60" width="1.32" height="15.40" fill="#8957e5"><title>2026-04-06: 2</title></rect><rect x="838.97" y="107.60" width="1.32" height="92.40" fill="#8957e5"><title>2026-04-07: 12</title></rect><rect x="840.41" y="176.90" width="1.32" height="23.10" fill="#8957e5"><title>2026-04-08: 3</title></rect><rect x="841.85" y="153.80" width="1.32" height="46.20" fill="#8957e5"><title>2026-04-09: 6</title></rect><rect x="843.29" y="184.60" width="1.32" height="15.40" fill="#8957e5"><title>2026-04-10: 2</title></rect><rect x="847.61" y="92.20" width="1.32" height="107.80" fill="#8957e5"><title>2026-04-13: 14</title></rect><rect x="849.05" y="184.60" width="1.32" height="15.40" fill="#8957e5"><title>2026-04-14: 2</title></rect><rect x="853.37" y="192.30" width="1.32" height="7.70" fill="#8957e5"><title>2026-04-17: 1</title></rect><rect x="857.68" y="169.20" width="1.32" height="30.80" fill="#8957e5"><title>2026-04-20: 4</title></rect><rect x="859.12" y="146.10" width="1.32" height="53.90" fill="#8957e5"><title>2026-04-21: 7</title></rect>
  <line class="grid" x1="46.00" x2="46.00" y1="46" y2="200"/>
  <text class="tick" x="46.00" y="218" text-anchor="middle">Oct 24</text>
  <line class="grid" x1="87.74" x2="87.74" y1="46" y2="200"/>
  <line class="grid" x1="130.91" x2="130.91" y1="46" y2="200"/>
  <text class="tick" x="130.91" y="218" text-anchor="middle">Dec 24</text>
  <line class="grid" x1="175.52" x2="175.52" y1="46" y2="200"/>
  <line class="grid" x1="220.14" x2="220.14" y1="46" y2="200"/>
  <text class="tick" x="220.14" y="218" text-anchor="middle">Feb 25</text>
  <line class="grid" x1="260.43" x2="260.43" y1="46" y2="200"/>
  <line class="grid" x1="305.05" x2="305.05" y1="46" y2="200"/>
  <text class="tick" x="305.05" y="218" text-anchor="middle">Apr 25</text>
  <line class="grid" x1="348.22" x2="348.22" y1="46" y2="200"/>
  <line class="grid" x1="392.84" x2="392.84" y1="46" y2="200"/>
  <text class="tick" x="392.84" y="218" text-anchor="middle">Jun 25</text>
  <line class="grid" x1="436.01" x2="436.01" y1="46" y2="200"/>
  <line class="grid" x1="480.62" x2="480.62" y1="46" y2="200"/>
  <text class="tick" x="480.62" y="218" text-anchor="middle">Aug 25</text>
  <line class="grid" x1="525.24" x2="525.24" y1="46" y2="200"/>
  <line class="grid" x1="568.41" x2="568.41" y1="46" y2="200"/>
  <text class="tick" x="568.41" y="218" text-anchor="middle">Oct 25</text>
  <line class="grid" x1="613.03" x2="613.03" y1="46" y2="200"/>
  <line class="grid" x1="656.20" x2="656.20" y1="46" y2="200"/>
  <text class="tick" x="656.20" y="218" text-anchor="middle">Dec 25</text>
  <line class="grid" x1="700.81" x2="700.81" y1="46" y2="200"/>
  <line class="grid" x1="745.43" x2="745.43" y1="46" y2="200"/>
  <text class="tick" x="745.43" y="218" text-anchor="middle">Feb 26</text>
  <line class="grid" x1="785.72" x2="785.72" y1="46" y2="200"/>
  <line class="grid" x1="830.34" x2="830.34" y1="46" y2="200"/>
  <text class="tick" x="830.34" y="218" text-anchor="middle">Apr 26</text>
</svg>
