<?xml version="1.0" encoding="UTF-8"?>
<svg xmlns="http://www.w3.org/2000/svg" width="960" height="334" viewBox="0 0 960 334" role="img" aria-label="Daily activity">
  <style>
    .bg { fill: #0d1117; }
    .border { fill: none; stroke: #30363d; stroke-width: 1; }
    .lane-title { font: 600 13px -apple-system, BlinkMacSystemFont, 'Segoe UI', sans-serif; fill: #f0f6fc; }
    .lane-sub { font: 500 10px -apple-system, BlinkMacSystemFont, 'Segoe UI', sans-serif; fill: #8b949e; }
    .axis { font: 500 10px -apple-system, BlinkMacSystemFont, 'Segoe UI', sans-serif; fill: #8b949e; }
    .baseline { stroke: #30363d; stroke-width: 1; }
    .gridline { stroke: #21262d; stroke-width: 1; }
  </style>
  <rect class="bg" x="0" y="0" width="960" height="334" rx="8" ry="8"/>
  <rect class="border" x="0.5" y="0.5" width="959" height="333" rx="8" ry="8"/>
  <g transform="translate(0,0)">
    <text class="lane-title" x="12" y="36">Closed Issues</text>
    <text class="lane-sub" x="12" y="54">peak 14/day</text>
    <text class="lane-sub" x="12" y="70">total 150</text>
    <line class="baseline" x1="150" x2="946" y1="98" y2="98"/><rect x="807.02" y="93.00" width="1.33" height="5.00" fill="#8957e5"><title>2026-01-14: 1</title></rect><rect x="808.42" y="93.00" width="1.33" height="5.00" fill="#8957e5"><title>2026-01-15: 1</title></rect><rect x="809.82" y="93.00" width="1.33" height="5.00" fill="#8957e5"><title>2026-01-16: 1</title></rect><rect x="814.04" y="93.00" width="1.33" height="5.00" fill="#8957e5"><title>2026-01-19: 1</title></rect><rect x="816.84" y="88.00" width="1.33" height="10.00" fill="#8957e5"><title>2026-01-21: 2</title></rect><rect x="818.25" y="93.00" width="1.33" height="5.00" fill="#8957e5"><title>2026-01-22: 1</title></rect><rect x="819.65" y="93.00" width="1.33" height="5.00" fill="#8957e5"><title>2026-01-23: 1</title></rect><rect x="823.86" y="93.00" width="1.33" height="5.00" fill="#8957e5"><title>2026-01-26: 1</title></rect><rect x="825.27" y="73.00" width="1.33" height="25.00" fill="#8957e5"><title>2026-01-27: 5</title></rect><rect x="826.67" y="83.00" width="1.33" height="15.00" fill="#8957e5"><title>2026-01-28: 3</title></rect><rect x="829.48" y="93.00" width="1.33" height="5.00" fill="#8957e5"><title>2026-01-30: 1</title></rect><rect x="833.69" y="88.00" width="1.33" height="10.00" fill="#8957e5"><title>2026-02-02: 2</title></rect><rect x="835.09" y="93.00" width="1.33" height="5.00" fill="#8957e5"><title>2026-02-03: 1</title></rect><rect x="837.90" y="78.00" width="1.33" height="20.00" fill="#8957e5"><title>2026-02-05: 4</title></rect><rect x="844.92" y="93.00" width="1.33" height="5.00" fill="#8957e5"><title>2026-02-10: 1</title></rect><rect x="847.73" y="83.00" width="1.33" height="15.00" fill="#8957e5"><title>2026-02-12: 3</title></rect><rect x="853.34" y="88.00" width="1.33" height="10.00" fill="#8957e5"><title>2026-02-16: 2</title></rect><rect x="854.75" y="88.00" width="1.33" height="10.00" fill="#8957e5"><title>2026-02-17: 2</title></rect><rect x="857.56" y="83.00" width="1.33" height="15.00" fill="#8957e5"><title>2026-02-19: 3</title></rect><rect x="858.96" y="93.00" width="1.33" height="5.00" fill="#8957e5"><title>2026-02-20: 1</title></rect><rect x="868.79" y="93.00" width="1.33" height="5.00" fill="#8957e5"><title>2026-02-27: 1</title></rect><rect x="873.00" y="88.00" width="1.33" height="10.00" fill="#8957e5"><title>2026-03-02: 2</title></rect><rect x="874.40" y="93.00" width="1.33" height="5.00" fill="#8957e5"><title>2026-03-03: 1</title></rect><rect x="877.21" y="93.00" width="1.33" height="5.00" fill="#8957e5"><title>2026-03-05: 1</title></rect><rect x="882.83" y="93.00" width="1.33" height="5.00" fill="#8957e5"><title>2026-03-09: 1</title></rect><rect x="884.23" y="93.00" width="1.33" height="5.00" fill="#8957e5"><title>2026-03-10: 1</title></rect><rect x="885.63" y="93.00" width="1.33" height="5.00" fill="#8957e5"><title>2026-03-11: 1</title></rect><rect x="887.04" y="88.00" width="1.33" height="10.00" fill="#8957e5"><title>2026-03-12: 2</title></rect><rect x="892.65" y="78.00" width="1.33" height="20.00" fill="#8957e5"><title>2026-03-16: 4</title></rect><rect x="894.06" y="93.00" width="1.33" height="5.00" fill="#8957e5"><title>2026-03-17: 1</title></rect><rect x="895.46" y="83.00" width="1.33" height="15.00" fill="#8957e5"><title>2026-03-18: 3</title></rect><rect x="896.86" y="78.00" width="1.33" height="20.00" fill="#8957e5"><title>2026-03-19: 4</title></rect><rect x="902.48" y="93.00" width="1.33" height="5.00" fill="#8957e5"><title>2026-03-23: 1</title></rect><rect x="903.88" y="73.00" width="1.33" height="25.00" fill="#8957e5"><title>2026-03-24: 5</title></rect><rect x="905.29" y="83.00" width="1.33" height="15.00" fill="#8957e5"><title>2026-03-25: 3</title></rect><rect x="906.69" y="88.00" width="1.33" height="10.00" fill="#8957e5"><title>2026-03-26: 2</title></rect><rect x="908.10" y="78.00" width="1.33" height="20.00" fill="#8957e5"><title>2026-03-27: 4</title></rect><rect x="912.31" y="78.00" width="1.33" height="20.00" fill="#8957e5"><title>2026-03-30: 4</title></rect><rect x="913.71" y="73.00" width="1.33" height="25.00" fill="#8957e5"><title>2026-03-31: 5</title></rect><rect x="915.11" y="93.00" width="1.33" height="5.00" fill="#8957e5"><title>2026-04-01: 1</title></rect><rect x="916.52" y="83.00" width="1.33" height="15.00" fill="#8957e5"><title>2026-04-02: 3</title></rect><rect x="917.92" y="48.00" width="1.33" height="50.00" fill="#8957e5"><title>2026-04-03: 10</title></rect><rect x="922.13" y="88.00" width="1.33" height="10.00" fill="#8957e5"><title>2026-04-06: 2</title></rect><rect x="923.54" y="38.00" width="1.33" height="60.00" fill="#8957e5"><title>2026-04-07: 12</title></rect><rect x="924.94" y="83.00" width="1.33" height="15.00" fill="#8957e5"><title>2026-04-08: 3</title></rect><rect x="926.35" y="68.00" width="1.33" height="30.00" fill="#8957e5"><title>2026-04-09: 6</title></rect><rect x="927.75" y="88.00" width="1.33" height="10.00" fill="#8957e5"><title>2026-04-10: 2</title></rect><rect x="931.96" y="28.00" width="1.33" height="70.00" fill="#8957e5"><title>2026-04-13: 14</title></rect><rect x="933.37" y="88.00" width="1.33" height="10.00" fill="#8957e5"><title>2026-04-14: 2</title></rect><rect x="937.58" y="93.00" width="1.33" height="5.00" fill="#8957e5"><title>2026-04-17: 1</title></rect><rect x="941.79" y="78.00" width="1.33" height="20.00" fill="#8957e5"><title>2026-04-20: 4</title></rect><rect x="943.19" y="63.00" width="1.33" height="35.00" fill="#8957e5"><title>2026-04-21: 7</title></rect>
  </g>
  <g transform="translate(0,0)">
    <text class="lane-title" x="12" y="136">Merged PRs</text>
    <text class="lane-sub" x="12" y="154">peak 7/day</text>
    <text class="lane-sub" x="12" y="170">total 342</text>
    <line class="baseline" x1="150" x2="946" y1="198" y2="198"/><rect x="151.40" y="188.00" width="1.33" height="10.00" fill="#1f6feb"><title>2024-10-04: 1</title></rect><rect x="168.25" y="188.00" width="1.33" height="10.00" fill="#1f6feb"><title>2024-10-16: 1</title></rect><rect x="169.65" y="178.00" width="1.33" height="20.00" fill="#1f6feb"><title>2024-10-17: 2</title></rect><rect x="176.67" y="178.00" width="1.33" height="20.00" fill="#1f6feb"><title>2024-10-22: 2</title></rect><rect x="179.48" y="178.00" width="1.33" height="20.00" fill="#1f6feb"><title>2024-10-24: 2</title></rect><rect x="187.90" y="168.00" width="1.33" height="30.00" fill="#1f6feb"><title>2024-10-30: 3</title></rect><rect x="189.31" y="188.00" width="1.33" height="10.00" fill="#1f6feb"><title>2024-10-31: 1</title></rect><rect x="190.71" y="168.00" width="1.33" height="30.00" fill="#1f6feb"><title>2024-11-01: 3</title></rect><rect x="197.73" y="138.00" width="1.33" height="60.00" fill="#1f6feb"><title>2024-11-06: 6</title></rect><rect x="199.14" y="188.00" width="1.33" height="10.00" fill="#1f6feb"><title>2024-11-07: 1</title></rect><rect x="204.75" y="188.00" width="1.33" height="10.00" fill="#1f6feb"><title>2024-11-11: 1</title></rect><rect x="206.16" y="138.00" width="1.33" height="60.00" fill="#1f6feb"><title>2024-11-12: 6</title></rect><rect x="207.56" y="178.00" width="1.33" height="20.00" fill="#1f6feb"><title>2024-11-13: 2</title></rect><rect x="208.96" y="168.00" width="1.33" height="30.00" fill="#1f6feb"><title>2024-11-14: 3</title></rect><rect x="210.37" y="188.00" width="1.33" height="10.00" fill="#1f6feb"><title>2024-11-15: 1</title></rect><rect x="214.58" y="158.00" width="1.33" height="40.00" fill="#1f6feb"><title>2024-11-18: 4</title></rect><rect x="215.98" y="178.00" width="1.33" height="20.00" fill="#1f6feb"><title>2024-11-19: 2</title></rect><rect x="217.39" y="188.00" width="1.33" height="10.00" fill="#1f6feb"><title>2024-11-20: 1</title></rect><rect x="225.81" y="138.00" width="1.33" height="60.00" fill="#1f6feb"><title>2024-11-26: 6</title></rect><rect x="227.21" y="178.00" width="1.33" height="20.00" fill="#1f6feb"><title>2024-11-27: 2</title></rect><rect x="230.02" y="188.00" width="1.33" height="10.00" fill="#1f6feb"><title>2024-11-29: 1</title></rect><rect x="245.46" y="188.00" width="1.33" height="10.00" fill="#1f6feb"><title>2024-12-10: 1</title></rect><rect x="256.69" y="188.00" width="1.33" height="10.00" fill="#1f6feb"><title>2024-12-18: 1</title></rect><rect x="258.10" y="178.00" width="1.33" height="20.00" fill="#1f6feb"><title>2024-12-19: 2</title></rect><rect x="259.50" y="188.00" width="1.33" height="10.00" fill="#1f6feb"><title>2024-12-20: 1</title></rect><rect x="263.71" y="168.00" width="1.33" height="30.00" fill="#1f6feb"><title>2024-12-23: 3</title></rect><rect x="284.77" y="188.00" width="1.33" height="10.00" fill="#1f6feb"><title>2025-01-07: 1</title></rect><rect x="286.18" y="188.00" width="1.33" height="10.00" fill="#1f6feb"><title>2025-01-08: 1</title></rect><rect x="287.58" y="178.00" width="1.33" height="20.00" fill="#1f6feb"><title>2025-01-09: 2</title></rect><rect x="294.60" y="188.00" width="1.33" height="10.00" fill="#1f6feb"><title>2025-01-14: 1</title></rect><rect x="314.25" y="178.00" width="1.33" height="20.00" fill="#1f6feb"><title>2025-01-28: 2</title></rect><rect x="325.49" y="178.00" width="1.33" height="20.00" fill="#1f6feb"><title>2025-02-05: 2</title></rect><rect x="326.89" y="188.00" width="1.33" height="10.00" fill="#1f6feb"><title>2025-02-06: 1</title></rect><rect x="335.31" y="178.00" width="1.33" height="20.00" fill="#1f6feb"><title>2025-02-12: 2</title></rect><rect x="338.12" y="178.00" width="1.33" height="20.00" fill="#1f6feb"><title>2025-02-14: 2</title></rect><rect x="363.39" y="188.00" width="1.33" height="10.00" fill="#1f6feb"><title>2025-03-04: 1</title></rect><rect x="374.62" y="178.00" width="1.33" height="20.00" fill="#1f6feb"><title>2025-03-12: 2</title></rect><rect x="381.64" y="168.00" width="1.33" height="30.00" fill="#1f6feb"><title>2025-03-17: 3</title></rect><rect x="384.45" y="178.00" width="1.33" height="20.00" fill="#1f6feb"><title>2025-03-19: 2</title></rect><rect x="394.28" y="168.00" width="1.33" height="30.00" fill="#1f6feb"><title>2025-03-26: 3</title></rect><rect x="404.10" y="188.00" width="1.33" height="10.00" fill="#1f6feb"><title>2025-04-02: 1</title></rect><rect x="411.12" y="168.00" width="1.33" height="30.00" fill="#1f6feb"><title>2025-04-07: 3</title></rect><rect x="412.53" y="188.00" width="1.33" height="10.00" fill="#1f6feb"><title>2025-04-08: 1</title></rect><rect x="422.35" y="188.00" width="1.33" height="10.00" fill="#1f6feb"><title>2025-04-15: 1</title></rect><rect x="425.16" y="188.00" width="1.33" height="10.00" fill="#1f6feb"><title>2025-04-17: 1</title></rect><rect x="426.56" y="188.00" width="1.33" height="10.00" fill="#1f6feb"><title>2025-04-18: 1</title></rect><rect x="432.18" y="188.00" width="1.33" height="10.00" fill="#1f6feb"><title>2025-04-22: 1</title></rect><rect x="443.41" y="178.00" width="1.33" height="20.00" fill="#1f6feb"><title>2025-04-30: 2</title></rect><rect x="444.81" y="168.00" width="1.33" height="30.00" fill="#1f6feb"><title>2025-05-01: 3</title></rect><rect x="464.47" y="178.00" width="1.33" height="20.00" fill="#1f6feb"><title>2025-05-15: 2</title></rect><rect x="465.87" y="188.00" width="1.33" height="10.00" fill="#1f6feb"><title>2025-05-16: 1</title></rect><rect x="471.49" y="178.00" width="1.33" height="20.00" fill="#1f6feb"><title>2025-05-20: 2</title></rect><rect x="474.30" y="178.00" width="1.33" height="20.00" fill="#1f6feb"><title>2025-05-22: 2</title></rect><rect x="481.32" y="188.00" width="1.33" height="10.00" fill="#1f6feb"><title>2025-05-27: 1</title></rect><rect x="492.55" y="188.00" width="1.33" height="10.00" fill="#1f6feb"><title>2025-06-04: 1</title></rect><rect x="496.76" y="168.00" width="1.33" height="30.00" fill="#1f6feb"><title>2025-06-07: 3</title></rect><rect x="502.37" y="188.00" width="1.33" height="10.00" fill="#1f6feb"><title>2025-06-11: 1</title></rect><rect x="509.39" y="178.00" width="1.33" height="20.00" fill="#1f6feb"><title>2025-06-16: 2</title></rect><rect x="510.80" y="188.00" width="1.33" height="10.00" fill="#1f6feb"><title>2025-06-17: 1</title></rect><rect x="512.20" y="178.00" width="1.33" height="20.00" fill="#1f6feb"><title>2025-06-18: 2</title></rect><rect x="515.01" y="188.00" width="1.33" height="10.00" fill="#1f6feb"><title>2025-06-20: 1</title></rect><rect x="519.22" y="188.00" width="1.33" height="10.00" fill="#1f6feb"><title>2025-06-23: 1</title></rect><rect x="520.62" y="178.00" width="1.33" height="20.00" fill="#1f6feb"><title>2025-06-24: 2</title></rect><rect x="522.03" y="168.00" width="1.33" height="30.00" fill="#1f6feb"><title>2025-06-25: 3</title></rect><rect x="523.43" y="178.00" width="1.33" height="20.00" fill="#1f6feb"><title>2025-06-26: 2</title></rect><rect x="529.05" y="188.00" width="1.33" height="10.00" fill="#1f6feb"><title>2025-06-30: 1</title></rect><rect x="530.45" y="188.00" width="1.33" height="10.00" fill="#1f6feb"><title>2025-07-01: 1</title></rect><rect x="531.86" y="168.00" width="1.33" height="30.00" fill="#1f6feb"><title>2025-07-02: 3</title></rect><rect x="533.26" y="188.00" width="1.33" height="10.00" fill="#1f6feb"><title>2025-07-03: 1</title></rect><rect x="534.66" y="188.00" width="1.33" height="10.00" fill="#1f6feb"><title>2025-07-04: 1</title></rect><rect x="540.28" y="188.00" width="1.33" height="10.00" fill="#1f6feb"><title>2025-07-08: 1</title></rect><rect x="543.09" y="168.00" width="1.33" height="30.00" fill="#1f6feb"><title>2025-07-10: 3</title></rect><rect x="550.11" y="188.00" width="1.33" height="10.00" fill="#1f6feb"><title>2025-07-15: 1</title></rect><rect x="554.32" y="188.00" width="1.33" height="10.00" fill="#1f6feb"><title>2025-07-18: 1</title></rect><rect x="561.34" y="188.00" width="1.33" height="10.00" fill="#1f6feb"><title>2025-07-23: 1</title></rect><rect x="562.74" y="178.00" width="1.33" height="20.00" fill="#1f6feb"><title>2025-07-24: 2</title></rect><rect x="564.14" y="188.00" width="1.33" height="10.00" fill="#1f6feb"><title>2025-07-25: 1</title></rect><rect x="569.76" y="168.00" width="1.33" height="30.00" fill="#1f6feb"><title>2025-07-29: 3</title></rect><rect x="582.40" y="178.00" width="1.33" height="20.00" fill="#1f6feb"><title>2025-08-07: 2</title></rect><rect x="583.80" y="178.00" width="1.33" height="20.00" fill="#1f6feb"><title>2025-08-08: 2</title></rect><rect x="590.82" y="188.00" width="1.33" height="10.00" fill="#1f6feb"><title>2025-08-13: 1</title></rect><rect x="592.22" y="188.00" width="1.33" height="10.00" fill="#1f6feb"><title>2025-08-14: 1</title></rect><rect x="600.65" y="188.00" width="1.33" height="10.00" fill="#1f6feb"><title>2025-08-20: 1</title></rect><rect x="602.05" y="188.00" width="1.33" height="10.00" fill="#1f6feb"><title>2025-08-21: 1</title></rect><rect x="609.07" y="178.00" width="1.33" height="20.00" fill="#1f6feb"><title>2025-08-26: 2</title></rect><rect x="610.47" y="188.00" width="1.33" height="10.00" fill="#1f6feb"><title>2025-08-27: 1</title></rect><rect x="611.88" y="138.00" width="1.33" height="60.00" fill="#1f6feb"><title>2025-08-28: 6</title></rect><rect x="613.28" y="188.00" width="1.33" height="10.00" fill="#1f6feb"><title>2025-08-29: 1</title></rect><rect x="617.49" y="188.00" width="1.33" height="10.00" fill="#1f6feb"><title>2025-09-01: 1</title></rect><rect x="618.90" y="158.00" width="1.33" height="40.00" fill="#1f6feb"><title>2025-09-02: 4</title></rect><rect x="620.30" y="178.00" width="1.33" height="20.00" fill="#1f6feb"><title>2025-09-03: 2</title></rect><rect x="621.70" y="168.00" width="1.33" height="30.00" fill="#1f6feb"><title>2025-09-04: 3</title></rect><rect x="623.11" y="188.00" width="1.33" height="10.00" fill="#1f6feb"><title>2025-09-05: 1</title></rect><rect x="627.32" y="168.00" width="1.33" height="30.00" fill="#1f6feb"><title>2025-09-08: 3</title></rect><rect x="628.72" y="178.00" width="1.33" height="20.00" fill="#1f6feb"><title>2025-09-09: 2</title></rect><rect x="638.55" y="178.00" width="1.33" height="20.00" fill="#1f6feb"><title>2025-09-16: 2</title></rect><rect x="639.95" y="188.00" width="1.33" height="10.00" fill="#1f6feb"><title>2025-09-17: 1</title></rect><rect x="641.36" y="178.00" width="1.33" height="20.00" fill="#1f6feb"><title>2025-09-18: 2</title></rect><rect x="642.76" y="188.00" width="1.33" height="10.00" fill="#1f6feb"><title>2025-09-19: 1</title></rect><rect x="651.19" y="148.00" width="1.33" height="50.00" fill="#1f6feb"><title>2025-09-25: 5</title></rect><rect x="652.59" y="168.00" width="1.33" height="30.00" fill="#1f6feb"><title>2025-09-26: 3</title></rect><rect x="658.20" y="178.00" width="1.33" height="20.00" fill="#1f6feb"><title>2025-09-30: 2</title></rect><rect x="659.61" y="178.00" width="1.33" height="20.00" fill="#1f6feb"><title>2025-10-01: 2</title></rect><rect x="661.01" y="188.00" width="1.33" height="10.00" fill="#1f6feb"><title>2025-10-02: 1</title></rect><rect x="665.22" y="188.00" width="1.33" height="10.00" fill="#1f6feb"><title>2025-10-05: 1</title></rect><rect x="666.63" y="188.00" width="1.33" height="10.00" fill="#1f6feb"><title>2025-10-06: 1</title></rect><rect x="670.84" y="188.00" width="1.33" height="10.00" fill="#1f6feb"><title>2025-10-09: 1</title></rect><rect x="677.86" y="178.00" width="1.33" height="20.00" fill="#1f6feb"><title>2025-10-14: 2</title></rect><rect x="679.26" y="178.00" width="1.33" height="20.00" fill="#1f6feb"><title>2025-10-15: 2</title></rect><rect x="691.90" y="188.00" width="1.33" height="10.00" fill="#1f6feb"><title>2025-10-24: 1</title></rect><rect x="697.51" y="168.00" width="1.33" height="30.00" fill="#1f6feb"><title>2025-10-28: 3</title></rect><rect x="698.92" y="188.00" width="1.33" height="10.00" fill="#1f6feb"><title>2025-10-29: 1</title></rect><rect x="701.72" y="178.00" width="1.33" height="20.00" fill="#1f6feb"><title>2025-10-31: 2</title></rect><rect x="708.74" y="188.00" width="1.33" height="10.00" fill="#1f6feb"><title>2025-11-05: 1</title></rect><rect x="710.15" y="188.00" width="1.33" height="10.00" fill="#1f6feb"><title>2025-11-06: 1</title></rect><rect x="711.55" y="178.00" width="1.33" height="20.00" fill="#1f6feb"><title>2025-11-07: 2</title></rect><rect x="717.17" y="178.00" width="1.33" height="20.00" fill="#1f6feb"><title>2025-11-11: 2</title></rect><rect x="718.57" y="178.00" width="1.33" height="20.00" fill="#1f6feb"><title>2025-11-12: 2</title></rect><rect x="719.98" y="178.00" width="1.33" height="20.00" fill="#1f6feb"><title>2025-11-13: 2</title></rect><rect x="721.38" y="178.00" width="1.33" height="20.00" fill="#1f6feb"><title>2025-11-14: 2</title></rect><rect x="726.99" y="188.00" width="1.33" height="10.00" fill="#1f6feb"><title>2025-11-18: 1</title></rect><rect x="728.40" y="188.00" width="1.33" height="10.00" fill="#1f6feb"><title>2025-11-19: 1</title></rect><rect x="739.63" y="188.00" width="1.33" height="10.00" fill="#1f6feb"><title>2025-11-27: 1</title></rect><rect x="748.05" y="168.00" width="1.33" height="30.00" fill="#1f6feb"><title>2025-12-03: 3</title></rect><rect x="749.46" y="178.00" width="1.33" height="20.00" fill="#1f6feb"><title>2025-12-04: 2</title></rect><rect x="750.86" y="178.00" width="1.33" height="20.00" fill="#1f6feb"><title>2025-12-05: 2</title></rect><rect x="755.07" y="188.00" width="1.33" height="10.00" fill="#1f6feb"><title>2025-12-08: 1</title></rect><rect x="760.69" y="188.00" width="1.33" height="10.00" fill="#1f6feb"><title>2025-12-12: 1</title></rect><rect x="764.90" y="188.00" width="1.33" height="10.00" fill="#1f6feb"><title>2025-12-15: 1</title></rect><rect x="770.51" y="178.00" width="1.33" height="20.00" fill="#1f6feb"><title>2025-12-19: 2</title></rect><rect x="807.02" y="188.00" width="1.33" height="10.00" fill="#1f6feb"><title>2026-01-14: 1</title></rect><rect x="808.42" y="188.00" width="1.33" height="10.00" fill="#1f6feb"><title>2026-01-15: 1</title></rect><rect x="809.82" y="178.00" width="1.33" height="20.00" fill="#1f6feb"><title>2026-01-16: 2</title></rect><rect x="814.04" y="188.00" width="1.33" height="10.00" fill="#1f6feb"><title>2026-01-19: 1</title></rect><rect x="816.84" y="188.00" width="1.33" height="10.00" fill="#1f6feb"><title>2026-01-21: 1</title></rect><rect x="818.25" y="188.00" width="1.33" height="10.00" fill="#1f6feb"><title>2026-01-22: 1</title></rect><rect x="819.65" y="188.00" width="1.33" height="10.00" fill="#1f6feb"><title>2026-01-23: 1</title></rect><rect x="823.86" y="188.00" width="1.33" height="10.00" fill="#1f6feb"><title>2026-01-26: 1</title></rect><rect x="825.27" y="188.00" width="1.33" height="10.00" fill="#1f6feb"><title>2026-01-27: 1</title></rect><rect x="829.48" y="188.00" width="1.33" height="10.00" fill="#1f6feb"><title>2026-01-30: 1</title></rect><rect x="833.69" y="178.00" width="1.33" height="20.00" fill="#1f6feb"><title>2026-02-02: 2</title></rect><rect x="835.09" y="188.00" width="1.33" height="10.00" fill="#1f6feb"><title>2026-02-03: 1</title></rect><rect x="843.52" y="188.00" width="1.33" height="10.00" fill="#1f6feb"><title>2026-02-09: 1</title></rect><rect x="844.92" y="188.00" width="1.33" height="10.00" fill="#1f6feb"><title>2026-02-10: 1</title></rect><rect x="847.73" y="188.00" width="1.33" height="10.00" fill="#1f6feb"><title>2026-02-12: 1</title></rect><rect x="853.34" y="188.00" width="1.33" height="10.00" fill="#1f6feb"><title>2026-02-16: 1</title></rect><rect x="854.75" y="178.00" width="1.33" height="20.00" fill="#1f6feb"><title>2026-02-17: 2</title></rect><rect x="857.56" y="188.00" width="1.33" height="10.00" fill="#1f6feb"><title>2026-02-19: 1</title></rect><rect x="858.96" y="188.00" width="1.33" height="10.00" fill="#1f6feb"><title>2026-02-20: 1</title></rect><rect x="867.38" y="188.00" width="1.33" height="10.00" fill="#1f6feb"><title>2026-02-26: 1</title></rect><rect x="868.79" y="178.00" width="1.33" height="20.00" fill="#1f6feb"><title>2026-02-27: 2</title></rect><rect x="873.00" y="178.00" width="1.33" height="20.00" fill="#1f6feb"><title>2026-03-02: 2</title></rect><rect x="874.40" y="188.00" width="1.33" height="10.00" fill="#1f6feb"><title>2026-03-03: 1</title></rect><rect x="877.21" y="188.00" width="1.33" height="10.00" fill="#1f6feb"><title>2026-03-05: 1</title></rect><rect x="878.61" y="188.00" width="1.33" height="10.00" fill="#1f6feb"><title>2026-03-06: 1</title></rect><rect x="882.83" y="188.00" width="1.33" height="10.00" fill="#1f6feb"><title>2026-03-09: 1</title></rect><rect x="884.23" y="178.00" width="1.33" height="20.00" fill="#1f6feb"><title>2026-03-10: 2</title></rect><rect x="885.63" y="188.00" width="1.33" height="10.00" fill="#1f6feb"><title>2026-03-11: 1</title></rect><rect x="887.04" y="178.00" width="1.33" height="20.00" fill="#1f6feb"><title>2026-03-12: 2</title></rect><rect x="892.65" y="178.00" width="1.33" height="20.00" fill="#1f6feb"><title>2026-03-16: 2</title></rect><rect x="894.06" y="178.00" width="1.33" height="20.00" fill="#1f6feb"><title>2026-03-17: 2</title></rect><rect x="895.46" y="188.00" width="1.33" height="10.00" fill="#1f6feb"><title>2026-03-18: 1</title></rect><rect x="896.86" y="188.00" width="1.33" height="10.00" fill="#1f6feb"><title>2026-03-19: 1</title></rect><rect x="902.48" y="188.00" width="1.33" height="10.00" fill="#1f6feb"><title>2026-03-23: 1</title></rect><rect x="903.88" y="168.00" width="1.33" height="30.00" fill="#1f6feb"><title>2026-03-24: 3</title></rect><rect x="905.29" y="178.00" width="1.33" height="20.00" fill="#1f6feb"><title>2026-03-25: 2</title></rect><rect x="906.69" y="178.00" width="1.33" height="20.00" fill="#1f6feb"><title>2026-03-26: 2</title></rect><rect x="908.10" y="148.00" width="1.33" height="50.00" fill="#1f6feb"><title>2026-03-27: 5</title></rect><rect x="912.31" y="168.00" width="1.33" height="30.00" fill="#1f6feb"><title>2026-03-30: 3</title></rect><rect x="913.71" y="168.00" width="1.33" height="30.00" fill="#1f6feb"><title>2026-03-31: 3</title></rect><rect x="916.52" y="158.00" width="1.33" height="40.00" fill="#1f6feb"><title>2026-04-02: 4</title></rect><rect x="917.92" y="128.00" width="1.33" height="70.00" fill="#1f6feb"><title>2026-04-03: 7</title></rect><rect x="922.13" y="178.00" width="1.33" height="20.00" fill="#1f6feb"><title>2026-04-06: 2</title></rect><rect x="923.54" y="138.00" width="1.33" height="60.00" fill="#1f6feb"><title>2026-04-07: 6</title></rect><rect x="924.94" y="148.00" width="1.33" height="50.00" fill="#1f6feb"><title>2026-04-08: 5</title></rect><rect x="926.35" y="138.00" width="1.33" height="60.00" fill="#1f6feb"><title>2026-04-09: 6</title></rect><rect x="927.75" y="188.00" width="1.33" height="10.00" fill="#1f6feb"><title>2026-04-10: 1</title></rect><rect x="931.96" y="178.00" width="1.33" height="20.00" fill="#1f6feb"><title>2026-04-13: 2</title></rect><rect x="937.58" y="188.00" width="1.33" height="10.00" fill="#1f6feb"><title>2026-04-17: 1</title></rect><rect x="941.79" y="168.00" width="1.33" height="30.00" fill="#1f6feb"><title>2026-04-20: 3</title></rect><rect x="943.19" y="148.00" width="1.33" height="50.00" fill="#1f6feb"><title>2026-04-21: 5</title></rect>
  </g>
  <g transform="translate(0,0)">
    <text class="lane-title" x="12" y="236">Review Submissions</text>
    <text class="lane-sub" x="12" y="254">peak 18/day</text>
    <text class="lane-sub" x="12" y="270">total 785</text>
    <line class="baseline" x1="150" x2="946" y1="298" y2="298"/><rect x="150.00" y="282.44" width="1.33" height="15.56" fill="#2ea043"><title>2024-10-03: 4</title></rect><rect x="155.62" y="290.22" width="1.33" height="7.78" fill="#2ea043"><title>2024-10-07: 2</title></rect><rect x="157.02" y="239.67" width="1.33" height="58.33" fill="#2ea043"><title>2024-10-08: 15</title></rect><rect x="159.83" y="290.22" width="1.33" height="7.78" fill="#2ea043"><title>2024-10-10: 2</title></rect><rect x="165.44" y="294.11" width="1.33" height="3.89" fill="#2ea043"><title>2024-10-14: 1</title></rect><rect x="166.85" y="266.89" width="1.33" height="31.11" fill="#2ea043"><title>2024-10-15: 8</title></rect><rect x="169.65" y="286.33" width="1.33" height="11.67" fill="#2ea043"><title>2024-10-17: 3</title></rect><rect x="171.06" y="290.22" width="1.33" height="7.78" fill="#2ea043"><title>2024-10-18: 2</title></rect><rect x="173.87" y="294.11" width="1.33" height="3.89" fill="#2ea043"><title>2024-10-20: 1</title></rect><rect x="175.27" y="278.56" width="1.33" height="19.44" fill="#2ea043"><title>2024-10-21: 5</title></rect><rect x="176.67" y="263.00" width="1.33" height="35.00" fill="#2ea043"><title>2024-10-22: 9</title></rect><rect x="178.08" y="286.33" width="1.33" height="11.67" fill="#2ea043"><title>2024-10-23: 3</title></rect><rect x="179.48" y="286.33" width="1.33" height="11.67" fill="#2ea043"><title>2024-10-24: 3</title></rect><rect x="186.50" y="270.78" width="1.33" height="27.22" fill="#2ea043"><title>2024-10-29: 7</title></rect><rect x="189.31" y="278.56" width="1.33" height="19.44" fill="#2ea043"><title>2024-10-31: 5</title></rect><rect x="190.71" y="270.78" width="1.33" height="27.22" fill="#2ea043"><title>2024-11-01: 7</title></rect><rect x="204.75" y="278.56" width="1.33" height="19.44" fill="#2ea043"><title>2024-11-11: 5</title></rect><rect x="206.16" y="270.78" width="1.33" height="27.22" fill="#2ea043"><title>2024-11-12: 7</title></rect><rect x="210.37" y="286.33" width="1.33" height="11.67" fill="#2ea043"><title>2024-11-15: 3</title></rect><rect x="214.58" y="286.33" width="1.33" height="11.67" fill="#2ea043"><title>2024-11-18: 3</title></rect><rect x="217.39" y="294.11" width="1.33" height="3.89" fill="#2ea043"><title>2024-11-20: 1</title></rect><rect x="220.19" y="290.22" width="1.33" height="7.78" fill="#2ea043"><title>2024-11-22: 2</title></rect><rect x="224.41" y="286.33" width="1.33" height="11.67" fill="#2ea043"><title>2024-11-25: 3</title></rect><rect x="225.81" y="286.33" width="1.33" height="11.67" fill="#2ea043"><title>2024-11-26: 3</title></rect><rect x="228.62" y="290.22" width="1.33" height="7.78" fill="#2ea043"><title>2024-11-28: 2</title></rect><rect x="235.64" y="274.67" width="1.33" height="23.33" fill="#2ea043"><title>2024-12-03: 6</title></rect><rect x="237.04" y="274.67" width="1.33" height="23.33" fill="#2ea043"><title>2024-12-04: 6</title></rect><rect x="238.44" y="294.11" width="1.33" height="3.89" fill="#2ea043"><title>2024-12-05: 1</title></rect><rect x="245.46" y="282.44" width="1.33" height="15.56" fill="#2ea043"><title>2024-12-10: 4</title></rect><rect x="246.87" y="239.67" width="1.33" height="58.33" fill="#2ea043"><title>2024-12-11: 15</title></rect><rect x="248.27" y="274.67" width="1.33" height="23.33" fill="#2ea043"><title>2024-12-12: 6</title></rect><rect x="249.68" y="290.22" width="1.33" height="7.78" fill="#2ea043"><title>2024-12-13: 2</title></rect><rect x="255.29" y="282.44" width="1.33" height="15.56" fill="#2ea043"><title>2024-12-17: 4</title></rect><rect x="258.10" y="286.33" width="1.33" height="11.67" fill="#2ea043"><title>2024-12-19: 3</title></rect><rect x="259.50" y="286.33" width="1.33" height="11.67" fill="#2ea043"><title>2024-12-20: 3</title></rect><rect x="263.71" y="290.22" width="1.33" height="7.78" fill="#2ea043"><title>2024-12-23: 2</title></rect><rect x="265.12" y="294.11" width="1.33" height="3.89" fill="#2ea043"><title>2024-12-24: 1</title></rect><rect x="266.52" y="286.33" width="1.33" height="11.67" fill="#2ea043"><title>2024-12-25: 3</title></rect><rect x="283.37" y="286.33" width="1.33" height="11.67" fill="#2ea043"><title>2025-01-06: 3</title></rect><rect x="284.77" y="294.11" width="1.33" height="3.89" fill="#2ea043"><title>2025-01-07: 1</title></rect><rect x="298.81" y="294.11" width="1.33" height="3.89" fill="#2ea043"><title>2025-01-17: 1</title></rect><rect x="304.43" y="286.33" width="1.33" height="11.67" fill="#2ea043"><title>2025-01-21: 3</title></rect><rect x="308.64" y="290.22" width="1.33" height="7.78" fill="#2ea043"><title>2025-01-24: 2</title></rect><rect x="328.29" y="286.33" width="1.33" height="11.67" fill="#2ea043"><title>2025-02-07: 3</title></rect><rect x="332.50" y="278.56" width="1.33" height="19.44" fill="#2ea043"><title>2025-02-10: 5</title></rect><rect x="335.31" y="278.56" width="1.33" height="19.44" fill="#2ea043"><title>2025-02-12: 5</title></rect><rect x="336.72" y="274.67" width="1.33" height="23.33" fill="#2ea043"><title>2025-02-13: 6</title></rect><rect x="338.12" y="270.78" width="1.33" height="27.22" fill="#2ea043"><title>2025-02-14: 7</title></rect><rect x="366.20" y="290.22" width="1.33" height="7.78" fill="#2ea043"><title>2025-03-06: 2</title></rect><rect x="367.60" y="286.33" width="1.33" height="11.67" fill="#2ea043"><title>2025-03-07: 3</title></rect><rect x="371.81" y="294.11" width="1.33" height="3.89" fill="#2ea043"><title>2025-03-10: 1</title></rect><rect x="373.22" y="270.78" width="1.33" height="27.22" fill="#2ea043"><title>2025-03-11: 7</title></rect><rect x="374.62" y="294.11" width="1.33" height="3.89" fill="#2ea043"><title>2025-03-12: 1</title></rect><rect x="376.02" y="243.56" width="1.33" height="54.44" fill="#2ea043"><title>2025-03-13: 14</title></rect><rect x="377.43" y="270.78" width="1.33" height="27.22" fill="#2ea043"><title>2025-03-14: 7</title></rect><rect x="381.64" y="290.22" width="1.33" height="7.78" fill="#2ea043"><title>2025-03-17: 2</title></rect><rect x="384.45" y="286.33" width="1.33" height="11.67" fill="#2ea043"><title>2025-03-19: 3</title></rect><rect x="387.26" y="294.11" width="1.33" height="3.89" fill="#2ea043"><title>2025-03-21: 1</title></rect><rect x="392.87" y="286.33" width="1.33" height="11.67" fill="#2ea043"><title>2025-03-25: 3</title></rect><rect x="397.08" y="286.33" width="1.33" height="11.67" fill="#2ea043"><title>2025-03-28: 3</title></rect><rect x="402.70" y="282.44" width="1.33" height="15.56" fill="#2ea043"><title>2025-04-01: 4</title></rect><rect x="406.91" y="290.22" width="1.33" height="7.78" fill="#2ea043"><title>2025-04-04: 2</title></rect><rect x="411.12" y="294.11" width="1.33" height="3.89" fill="#2ea043"><title>2025-04-07: 1</title></rect><rect x="412.53" y="294.11" width="1.33" height="3.89" fill="#2ea043"><title>2025-04-08: 1</title></rect><rect x="413.93" y="290.22" width="1.33" height="7.78" fill="#2ea043"><title>2025-04-09: 2</title></rect><rect x="415.33" y="290.22" width="1.33" height="7.78" fill="#2ea043"><title>2025-04-10: 2</title></rect><rect x="420.95" y="294.11" width="1.33" height="3.89" fill="#2ea043"><title>2025-04-14: 1</title></rect><rect x="422.35" y="286.33" width="1.33" height="11.67" fill="#2ea043"><title>2025-04-15: 3</title></rect><rect x="425.16" y="294.11" width="1.33" height="3.89" fill="#2ea043"><title>2025-04-17: 1</title></rect><rect x="430.78" y="278.56" width="1.33" height="19.44" fill="#2ea043"><title>2025-04-21: 5</title></rect><rect x="433.58" y="290.22" width="1.33" height="7.78" fill="#2ea043"><title>2025-04-23: 2</title></rect><rect x="443.41" y="274.67" width="1.33" height="23.33" fill="#2ea043"><title>2025-04-30: 6</title></rect><rect x="446.22" y="282.44" width="1.33" height="15.56" fill="#2ea043"><title>2025-05-02: 4</title></rect><rect x="460.26" y="290.22" width="1.33" height="7.78" fill="#2ea043"><title>2025-05-12: 2</title></rect><rect x="461.66" y="266.89" width="1.33" height="31.11" fill="#2ea043"><title>2025-05-13: 8</title></rect><rect x="464.47" y="270.78" width="1.33" height="27.22" fill="#2ea043"><title>2025-05-15: 7</title></rect><rect x="465.87" y="266.89" width="1.33" height="31.11" fill="#2ea043"><title>2025-05-16: 8</title></rect><rect x="470.08" y="286.33" width="1.33" height="11.67" fill="#2ea043"><title>2025-05-19: 3</title></rect><rect x="471.49" y="243.56" width="1.33" height="54.44" fill="#2ea043"><title>2025-05-20: 14</title></rect><rect x="474.30" y="294.11" width="1.33" height="3.89" fill="#2ea043"><title>2025-05-22: 1</title></rect><rect x="475.70" y="294.11" width="1.33" height="3.89" fill="#2ea043"><title>2025-05-23: 1</title></rect><rect x="484.12" y="294.11" width="1.33" height="3.89" fill="#2ea043"><title>2025-05-29: 1</title></rect><rect x="492.55" y="282.44" width="1.33" height="15.56" fill="#2ea043"><title>2025-06-04: 4</title></rect><rect x="499.57" y="286.33" width="1.33" height="11.67" fill="#2ea043"><title>2025-06-09: 3</title></rect><rect x="502.37" y="294.11" width="1.33" height="3.89" fill="#2ea043"><title>2025-06-11: 1</title></rect><rect x="503.78" y="290.22" width="1.33" height="7.78" fill="#2ea043"><title>2025-06-12: 2</title></rect><rect x="509.39" y="294.11" width="1.33" height="3.89" fill="#2ea043"><title>2025-06-16: 1</title></rect><rect x="513.60" y="278.56" width="1.33" height="19.44" fill="#2ea043"><title>2025-06-19: 5</title></rect><rect x="515.01" y="286.33" width="1.33" height="11.67" fill="#2ea043"><title>2025-06-20: 3</title></rect><rect x="519.22" y="286.33" width="1.33" height="11.67" fill="#2ea043"><title>2025-06-23: 3</title></rect><rect x="520.62" y="282.44" width="1.33" height="15.56" fill="#2ea043"><title>2025-06-24: 4</title></rect><rect x="523.43" y="294.11" width="1.33" height="3.89" fill="#2ea043"><title>2025-06-26: 1</title></rect><rect x="533.26" y="290.22" width="1.33" height="7.78" fill="#2ea043"><title>2025-07-03: 2</title></rect><rect x="540.28" y="286.33" width="1.33" height="11.67" fill="#2ea043"><title>2025-07-08: 3</title></rect><rect x="543.09" y="286.33" width="1.33" height="11.67" fill="#2ea043"><title>2025-07-10: 3</title></rect><rect x="550.11" y="278.56" width="1.33" height="19.44" fill="#2ea043"><title>2025-07-15: 5</title></rect><rect x="551.51" y="259.11" width="1.33" height="38.89" fill="#2ea043"><title>2025-07-16: 10</title></rect><rect x="552.91" y="294.11" width="1.33" height="3.89" fill="#2ea043"><title>2025-07-17: 1</title></rect><rect x="554.32" y="278.56" width="1.33" height="19.44" fill="#2ea043"><title>2025-07-18: 5</title></rect><rect x="559.93" y="286.33" width="1.33" height="11.67" fill="#2ea043"><title>2025-07-22: 3</title></rect><rect x="561.34" y="282.44" width="1.33" height="15.56" fill="#2ea043"><title>2025-07-23: 4</title></rect><rect x="562.74" y="286.33" width="1.33" height="11.67" fill="#2ea043"><title>2025-07-24: 3</title></rect><rect x="564.14" y="290.22" width="1.33" height="7.78" fill="#2ea043"><title>2025-07-25: 2</title></rect><rect x="568.36" y="294.11" width="1.33" height="3.89" fill="#2ea043"><title>2025-07-28: 1</title></rect><rect x="571.16" y="290.22" width="1.33" height="7.78" fill="#2ea043"><title>2025-07-30: 2</title></rect><rect x="580.99" y="255.22" width="1.33" height="42.78" fill="#2ea043"><title>2025-08-06: 11</title></rect><rect x="582.40" y="274.67" width="1.33" height="23.33" fill="#2ea043"><title>2025-08-07: 6</title></rect><rect x="583.80" y="286.33" width="1.33" height="11.67" fill="#2ea043"><title>2025-08-08: 3</title></rect><rect x="589.41" y="266.89" width="1.33" height="31.11" fill="#2ea043"><title>2025-08-12: 8</title></rect><rect x="590.82" y="290.22" width="1.33" height="7.78" fill="#2ea043"><title>2025-08-13: 2</title></rect><rect x="592.22" y="290.22" width="1.33" height="7.78" fill="#2ea043"><title>2025-08-14: 2</title></rect><rect x="597.84" y="282.44" width="1.33" height="15.56" fill="#2ea043"><title>2025-08-18: 4</title></rect><rect x="602.05" y="294.11" width="1.33" height="3.89" fill="#2ea043"><title>2025-08-21: 1</title></rect><rect x="607.66" y="294.11" width="1.33" height="3.89" fill="#2ea043"><title>2025-08-25: 1</title></rect><rect x="609.07" y="266.89" width="1.33" height="31.11" fill="#2ea043"><title>2025-08-26: 8</title></rect><rect x="610.47" y="286.33" width="1.33" height="11.67" fill="#2ea043"><title>2025-08-27: 3</title></rect><rect x="611.88" y="282.44" width="1.33" height="15.56" fill="#2ea043"><title>2025-08-28: 4</title></rect><rect x="613.28" y="274.67" width="1.33" height="23.33" fill="#2ea043"><title>2025-08-29: 6</title></rect><rect x="617.49" y="294.11" width="1.33" height="3.89" fill="#2ea043"><title>2025-09-01: 1</title></rect><rect x="618.90" y="278.56" width="1.33" height="19.44" fill="#2ea043"><title>2025-09-02: 5</title></rect><rect x="620.30" y="282.44" width="1.33" height="15.56" fill="#2ea043"><title>2025-09-03: 4</title></rect><rect x="621.70" y="270.78" width="1.33" height="27.22" fill="#2ea043"><title>2025-09-04: 7</title></rect><rect x="623.11" y="282.44" width="1.33" height="15.56" fill="#2ea043"><title>2025-09-05: 4</title></rect><rect x="627.32" y="294.11" width="1.33" height="3.89" fill="#2ea043"><title>2025-09-08: 1</title></rect><rect x="628.72" y="290.22" width="1.33" height="7.78" fill="#2ea043"><title>2025-09-09: 2</title></rect><rect x="630.13" y="294.11" width="1.33" height="3.89" fill="#2ea043"><title>2025-09-10: 1</title></rect><rect x="631.53" y="278.56" width="1.33" height="19.44" fill="#2ea043"><title>2025-09-11: 5</title></rect><rect x="632.93" y="286.33" width="1.33" height="11.67" fill="#2ea043"><title>2025-09-12: 3</title></rect><rect x="637.15" y="294.11" width="1.33" height="3.89" fill="#2ea043"><title>2025-09-15: 1</title></rect><rect x="638.55" y="270.78" width="1.33" height="27.22" fill="#2ea043"><title>2025-09-16: 7</title></rect><rect x="639.95" y="228.00" width="1.33" height="70.00" fill="#2ea043"><title>2025-09-17: 18</title></rect><rect x="641.36" y="274.67" width="1.33" height="23.33" fill="#2ea043"><title>2025-09-18: 6</title></rect><rect x="642.76" y="294.11" width="1.33" height="3.89" fill="#2ea043"><title>2025-09-19: 1</title></rect><rect x="649.78" y="294.11" width="1.33" height="3.89" fill="#2ea043"><title>2025-09-24: 1</title></rect><rect x="651.19" y="294.11" width="1.33" height="3.89" fill="#2ea043"><title>2025-09-25: 1</title></rect><rect x="652.59" y="274.67" width="1.33" height="23.33" fill="#2ea043"><title>2025-09-26: 6</title></rect><rect x="659.61" y="294.11" width="1.33" height="3.89" fill="#2ea043"><title>2025-10-01: 1</title></rect><rect x="661.01" y="294.11" width="1.33" height="3.89" fill="#2ea043"><title>2025-10-02: 1</title></rect><rect x="666.63" y="286.33" width="1.33" height="11.67" fill="#2ea043"><title>2025-10-06: 3</title></rect><rect x="670.84" y="294.11" width="1.33" height="3.89" fill="#2ea043"><title>2025-10-09: 1</title></rect><rect x="672.24" y="278.56" width="1.33" height="19.44" fill="#2ea043"><title>2025-10-10: 5</title></rect><rect x="679.26" y="286.33" width="1.33" height="11.67" fill="#2ea043"><title>2025-10-15: 3</title></rect><rect x="689.09" y="278.56" width="1.33" height="19.44" fill="#2ea043"><title>2025-10-22: 5</title></rect><rect x="690.49" y="294.11" width="1.33" height="3.89" fill="#2ea043"><title>2025-10-23: 1</title></rect><rect x="691.90" y="290.22" width="1.33" height="7.78" fill="#2ea043"><title>2025-10-24: 2</title></rect><rect x="697.51" y="294.11" width="1.33" height="3.89" fill="#2ea043"><title>2025-10-28: 1</title></rect><rect x="698.92" y="294.11" width="1.33" height="3.89" fill="#2ea043"><title>2025-10-29: 1</title></rect><rect x="701.72" y="278.56" width="1.33" height="19.44" fill="#2ea043"><title>2025-10-31: 5</title></rect><rect x="707.34" y="263.00" width="1.33" height="35.00" fill="#2ea043"><title>2025-11-04: 9</title></rect><rect x="708.74" y="247.44" width="1.33" height="50.56" fill="#2ea043"><title>2025-11-05: 13</title></rect><rect x="710.15" y="290.22" width="1.33" height="7.78" fill="#2ea043"><title>2025-11-06: 2</title></rect><rect x="711.55" y="294.11" width="1.33" height="3.89" fill="#2ea043"><title>2025-11-07: 1</title></rect><rect x="717.17" y="294.11" width="1.33" height="3.89" fill="#2ea043"><title>2025-11-11: 1</title></rect><rect x="718.57" y="255.22" width="1.33" height="42.78" fill="#2ea043"><title>2025-11-12: 11</title></rect><rect x="719.98" y="239.67" width="1.33" height="58.33" fill="#2ea043"><title>2025-11-13: 15</title></rect><rect x="721.38" y="259.11" width="1.33" height="38.89" fill="#2ea043"><title>2025-11-14: 10</title></rect><rect x="748.05" y="294.11" width="1.33" height="3.89" fill="#2ea043"><title>2025-12-03: 1</title></rect><rect x="749.46" y="294.11" width="1.33" height="3.89" fill="#2ea043"><title>2025-12-04: 1</title></rect><rect x="750.86" y="286.33" width="1.33" height="11.67" fill="#2ea043"><title>2025-12-05: 3</title></rect><rect x="757.88" y="294.11" width="1.33" height="3.89" fill="#2ea043"><title>2025-12-10: 1</title></rect><rect x="760.69" y="294.11" width="1.33" height="3.89" fill="#2ea043"><title>2025-12-12: 1</title></rect><rect x="764.90" y="294.11" width="1.33" height="3.89" fill="#2ea043"><title>2025-12-15: 1</title></rect><rect x="766.30" y="294.11" width="1.33" height="3.89" fill="#2ea043"><title>2025-12-16: 1</title></rect><rect x="767.71" y="294.11" width="1.33" height="3.89" fill="#2ea043"><title>2025-12-17: 1</title></rect><rect x="769.11" y="294.11" width="1.33" height="3.89" fill="#2ea043"><title>2025-12-18: 1</title></rect><rect x="777.53" y="294.11" width="1.33" height="3.89" fill="#2ea043"><title>2025-12-24: 1</title></rect><rect x="807.02" y="290.22" width="1.33" height="7.78" fill="#2ea043"><title>2026-01-14: 2</title></rect><rect x="808.42" y="294.11" width="1.33" height="3.89" fill="#2ea043"><title>2026-01-15: 1</title></rect><rect x="814.04" y="286.33" width="1.33" height="11.67" fill="#2ea043"><title>2026-01-19: 3</title></rect><rect x="815.44" y="263.00" width="1.33" height="35.00" fill="#2ea043"><title>2026-01-20: 9</title></rect><rect x="816.84" y="286.33" width="1.33" height="11.67" fill="#2ea043"><title>2026-01-21: 3</title></rect><rect x="818.25" y="266.89" width="1.33" height="31.11" fill="#2ea043"><title>2026-01-22: 8</title></rect><rect x="819.65" y="294.11" width="1.33" height="3.89" fill="#2ea043"><title>2026-01-23: 1</title></rect><rect x="823.86" y="294.11" width="1.33" height="3.89" fill="#2ea043"><title>2026-01-26: 1</title></rect><rect x="825.27" y="294.11" width="1.33" height="3.89" fill="#2ea043"><title>2026-01-27: 1</title></rect><rect x="826.67" y="290.22" width="1.33" height="7.78" fill="#2ea043"><title>2026-01-28: 2</title></rect><rect x="828.07" y="278.56" width="1.33" height="19.44" fill="#2ea043"><title>2026-01-29: 5</title></rect><rect x="829.48" y="278.56" width="1.33" height="19.44" fill="#2ea043"><title>2026-01-30: 5</title></rect><rect x="833.69" y="266.89" width="1.33" height="31.11" fill="#2ea043"><title>2026-02-02: 8</title></rect><rect x="843.52" y="290.22" width="1.33" height="7.78" fill="#2ea043"><title>2026-02-09: 2</title></rect><rect x="844.92" y="282.44" width="1.33" height="15.56" fill="#2ea043"><title>2026-02-10: 4</title></rect><rect x="847.73" y="290.22" width="1.33" height="7.78" fill="#2ea043"><title>2026-02-12: 2</title></rect><rect x="853.34" y="294.11" width="1.33" height="3.89" fill="#2ea043"><title>2026-02-16: 1</title></rect><rect x="854.75" y="294.11" width="1.33" height="3.89" fill="#2ea043"><title>2026-02-17: 1</title></rect><rect x="857.56" y="251.33" width="1.33" height="46.67" fill="#2ea043"><title>2026-02-19: 12</title></rect><rect x="865.98" y="286.33" width="1.33" height="11.67" fill="#2ea043"><title>2026-02-25: 3</title></rect><rect x="875.81" y="282.44" width="1.33" height="15.56" fill="#2ea043"><title>2026-03-04: 4</title></rect><rect x="877.21" y="286.33" width="1.33" height="11.67" fill="#2ea043"><title>2026-03-05: 3</title></rect><rect x="884.23" y="294.11" width="1.33" height="3.89" fill="#2ea043"><title>2026-03-10: 1</title></rect><rect x="887.04" y="282.44" width="1.33" height="15.56" fill="#2ea043"><title>2026-03-12: 4</title></rect><rect x="892.65" y="286.33" width="1.33" height="11.67" fill="#2ea043"><title>2026-03-16: 3</title></rect><rect x="894.06" y="270.78" width="1.33" height="27.22" fill="#2ea043"><title>2026-03-17: 7</title></rect><rect x="895.46" y="294.11" width="1.33" height="3.89" fill="#2ea043"><title>2026-03-18: 1</title></rect><rect x="896.86" y="290.22" width="1.33" height="7.78" fill="#2ea043"><title>2026-03-19: 2</title></rect><rect x="902.48" y="294.11" width="1.33" height="3.89" fill="#2ea043"><title>2026-03-23: 1</title></rect><rect x="903.88" y="290.22" width="1.33" height="7.78" fill="#2ea043"><title>2026-03-24: 2</title></rect><rect x="905.29" y="278.56" width="1.33" height="19.44" fill="#2ea043"><title>2026-03-25: 5</title></rect><rect x="906.69" y="294.11" width="1.33" height="3.89" fill="#2ea043"><title>2026-03-26: 1</title></rect><rect x="908.10" y="286.33" width="1.33" height="11.67" fill="#2ea043"><title>2026-03-27: 3</title></rect><rect x="912.31" y="282.44" width="1.33" height="15.56" fill="#2ea043"><title>2026-03-30: 4</title></rect><rect x="913.71" y="294.11" width="1.33" height="3.89" fill="#2ea043"><title>2026-03-31: 1</title></rect><rect x="915.11" y="294.11" width="1.33" height="3.89" fill="#2ea043"><title>2026-04-01: 1</title></rect><rect x="916.52" y="290.22" width="1.33" height="7.78" fill="#2ea043"><title>2026-04-02: 2</title></rect><rect x="917.92" y="290.22" width="1.33" height="7.78" fill="#2ea043"><title>2026-04-03: 2</title></rect><rect x="920.73" y="290.22" width="1.33" height="7.78" fill="#2ea043"><title>2026-04-05: 2</title></rect><rect x="922.13" y="290.22" width="1.33" height="7.78" fill="#2ea043"><title>2026-04-06: 2</title></rect><rect x="923.54" y="286.33" width="1.33" height="11.67" fill="#2ea043"><title>2026-04-07: 3</title></rect><rect x="924.94" y="282.44" width="1.33" height="15.56" fill="#2ea043"><title>2026-04-08: 4</title></rect><rect x="931.96" y="290.22" width="1.33" height="7.78" fill="#2ea043"><title>2026-04-13: 2</title></rect><rect x="937.58" y="282.44" width="1.33" height="15.56" fill="#2ea043"><title>2026-04-17: 4</title></rect><rect x="941.79" y="263.00" width="1.33" height="35.00" fill="#2ea043"><title>2026-04-20: 9</title></rect><rect x="943.19" y="282.44" width="1.33" height="15.56" fill="#2ea043"><title>2026-04-21: 4</title></rect><rect x="944.60" y="286.33" width="1.33" height="11.67" fill="#2ea043"><title>2026-04-22: 3</title></rect>
  </g>
  <line class="gridline" x1="150.00" x2="150.00" y1="14" y2="298"/>
  <text class="axis" x="154.00" y="314">2024</text>
  <line class="gridline" x1="276.35" x2="276.35" y1="14" y2="298"/>
  <text class="axis" x="280.35" y="314">2025</text>
  <line class="gridline" x1="788.77" x2="788.77" y1="14" y2="298"/>
  <text class="axis" x="792.77" y="314">2026</text>
  <text class="axis" x="942.60" y="314" text-anchor="end">today</text>
</svg>
