<?xml version="1.0" encoding="UTF-8"?>
<svg xmlns="http://www.w3.org/2000/svg" width="880" height="300" viewBox="0 0 880 300" role="img" aria-label="Combined activity graph last 30 days">
  <style>
    .bg { fill: #0d1117; }
    .border { fill: none; stroke: #30363d; stroke-width: 1; }
    .title { font: 600 16px -apple-system, BlinkMacSystemFont, 'Segoe UI', sans-serif; fill: #f0f6fc; }
    .tick { font: 500 11px -apple-system, BlinkMacSystemFont, 'Segoe UI', sans-serif; fill: #8b949e; }
    .axis-label { font: 500 11px -apple-system, BlinkMacSystemFont, 'Segoe UI', sans-serif; fill: #8b949e; }
    .grid-dashed { stroke: #21262d; stroke-width: 1; stroke-dasharray: 3 4; }
    .axis-line { stroke: #30363d; stroke-width: 1; }
    .legend-label { font: 500 11px -apple-system, BlinkMacSystemFont, 'Segoe UI', sans-serif; fill: #c9d1d9; }
  </style>
  <rect class="bg" x="0" y="0" width="880" height="300" rx="8" ry="8"/>
  <rect class="border" x="0.5" y="0.5" width="879" height="299" rx="8" ry="8"/>

  <text class="title" x="440" y="30" text-anchor="middle">Combined Activity Graph</text>
  <line x1="220" x2="242" y1="54" y2="54" stroke="#8957e5" stroke-width="2.5"/>
  <circle cx="231" cy="54" r="3" fill="#8957e5"/>
  <text class="legend-label" x="250" y="58">Closed Issues</text>
  <line x1="400" x2="422" y1="54" y2="54" stroke="#1f6feb" stroke-width="2.5"/>
  <circle cx="411" cy="54" r="3" fill="#1f6feb"/>
  <text class="legend-label" x="430" y="58">Merged PRs</text>
  <line x1="580" x2="602" y1="54" y2="54" stroke="#2ea043" stroke-width="2.5"/>
  <circle cx="591" cy="54" r="3" fill="#2ea043"/>
  <text class="legend-label" x="610" y="58">Review Submissions</text>
  <line class="grid-dashed" x1="54" x2="850" y1="260.00" y2="260.00"/>
  <text class="tick" x="44" y="264.00" text-anchor="end">0</text>
  <line class="grid-dashed" x1="54" x2="850" y1="76.00" y2="76.00"/>
  <text class="tick" x="44" y="80.00" text-anchor="end">1</text>
  <line class="axis-line" x1="54" x2="54" y1="76" y2="260"/>
  <line class="axis-line" x1="54" x2="850" y1="260" y2="260"/>
  <path fill="none" stroke="#8957e5" stroke-width="2" stroke-linejoin="round" stroke-linecap="round" d="M54.00,260.00 L81.45,260.00 L108.90,260.00 L136.34,260.00 L163.79,260.00 L191.24,260.00 L218.69,260.00 L246.14,260.00 L273.59,260.00 L301.03,260.00 L328.48,260.00 L355.93,260.00 L383.38,260.00 L410.83,260.00 L438.28,260.00 L465.72,260.00 L493.17,260.00 L520.62,260.00 L548.07,260.00 L575.52,260.00 L602.97,260.00 L630.41,260.00 L657.86,260.00 L685.31,260.00 L712.76,260.00 L740.21,260.00 L767.66,260.00 L795.10,260.00 L822.55,260.00 L850.00,260.00"/>
  <circle cx="54.00" cy="260.00" r="2.5" fill="#8957e5"><title>Closed Issues 2026-04-03: 0</title></circle>
  <circle cx="81.45" cy="260.00" r="2.5" fill="#8957e5"><title>Closed Issues 2026-04-04: 0</title></circle>
  <circle cx="108.90" cy="260.00" r="2.5" fill="#8957e5"><title>Closed Issues 2026-04-05: 0</title></circle>
  <circle cx="136.34" cy="260.00" r="2.5" fill="#8957e5"><title>Closed Issues 2026-04-06: 0</title></circle>
  <circle cx="163.79" cy="260.00" r="2.5" fill="#8957e5"><title>Closed Issues 2026-04-07: 0</title></circle>
  <circle cx="191.24" cy="260.00" r="2.5" fill="#8957e5"><title>Closed Issues 2026-04-08: 0</title></circle>
  <circle cx="218.69" cy="260.00" r="2.5" fill="#8957e5"><title>Closed Issues 2026-04-09: 0</title></circle>
  <circle cx="246.14" cy="260.00" r="2.5" fill="#8957e5"><title>Closed Issues 2026-04-10: 0</title></circle>
  <circle cx="273.59" cy="260.00" r="2.5" fill="#8957e5"><title>Closed Issues 2026-04-11: 0</title></circle>
  <circle cx="301.03" cy="260.00" r="2.5" fill="#8957e5"><title>Closed Issues 2026-04-12: 0</title></circle>
  <circle cx="328.48" cy="260.00" r="2.5" fill="#8957e5"><title>Closed Issues 2026-04-13: 0</title></circle>
  <circle cx="355.93" cy="260.00" r="2.5" fill="#8957e5"><title>Closed Issues 2026-04-14: 0</title></circle>
  <circle cx="383.38" cy="260.00" r="2.5" fill="#8957e5"><title>Closed Issues 2026-04-15: 0</title></circle>
  <circle cx="410.83" cy="260.00" r="2.5" fill="#8957e5"><title>Closed Issues 2026-04-16: 0</title></circle>
  <circle cx="438.28" cy="260.00" r="2.5" fill="#8957e5"><title>Closed Issues 2026-04-17: 0</title></circle>
  <circle cx="465.72" cy="260.00" r="2.5" fill="#8957e5"><title>Closed Issues 2026-04-18: 0</title></circle>
  <circle cx="493.17" cy="260.00" r="2.5" fill="#8957e5"><title>Closed Issues 2026-04-19: 0</title></circle>
  <circle cx="520.62" cy="260.00" r="2.5" fill="#8957e5"><title>Closed Issues 2026-04-20: 0</title></circle>
  <circle cx="548.07" cy="260.00" r="2.5" fill="#8957e5"><title>Closed Issues 2026-04-21: 0</title></circle>
  <circle cx="575.52" cy="260.00" r="2.5" fill="#8957e5"><title>Closed Issues 2026-04-22: 0</title></circle>
  <circle cx="602.97" cy="260.00" r="2.5" fill="#8957e5"><title>Closed Issues 2026-04-23: 0</title></circle>
  <circle cx="630.41" cy="260.00" r="2.5" fill="#8957e5"><title>Closed Issues 2026-04-24: 0</title></circle>
  <circle cx="657.86" cy="260.00" r="2.5" fill="#8957e5"><title>Closed Issues 2026-04-25: 0</title></circle>
  <circle cx="685.31" cy="260.00" r="2.5" fill="#8957e5"><title>Closed Issues 2026-04-26: 0</title></circle>
  <circle cx="712.76" cy="260.00" r="2.5" fill="#8957e5"><title>Closed Issues 2026-04-27: 0</title></circle>
  <circle cx="740.21" cy="260.00" r="2.5" fill="#8957e5"><title>Closed Issues 2026-04-28: 0</title></circle>
  <circle cx="767.66" cy="260.00" r="2.5" fill="#8957e5"><title>Closed Issues 2026-04-29: 0</title></circle>
  <circle cx="795.10" cy="260.00" r="2.5" fill="#8957e5"><title>Closed Issues 2026-04-30: 0</title></circle>
  <circle cx="822.55" cy="260.00" r="2.5" fill="#8957e5"><title>Closed Issues 2026-05-01: 0</title></circle>
  <circle cx="850.00" cy="260.00" r="2.5" fill="#8957e5"><title>Closed Issues 2026-05-02: 0</title></circle>
  <path fill="none" stroke="#1f6feb" stroke-width="2" stroke-linejoin="round" stroke-linecap="round" d="M54.00,260.00 L81.45,260.00 L108.90,260.00 L136.34,260.00 L163.79,260.00 L191.24,260.00 L218.69,260.00 L246.14,260.00 L273.59,260.00 L301.03,260.00 L328.48,260.00 L355.93,260.00 L383.38,260.00 L410.83,260.00 L438.28,260.00 L465.72,260.00 L493.17,260.00 L520.62,260.00 L548.07,260.00 L575.52,260.00 L602.97,260.00 L630.41,260.00 L657.86,260.00 L685.31,260.00 L712.76,260.00 L740.21,260.00 L767.66,260.00 L795.10,260.00 L822.55,260.00 L850.00,260.00"/>
  <circle cx="54.00" cy="260.00" r="2.5" fill="#1f6feb"><title>Merged PRs 2026-04-03: 0</title></circle>
  <circle cx="81.45" cy="260.00" r="2.5" fill="#1f6feb"><title>Merged PRs 2026-04-04: 0</title></circle>
  <circle cx="108.90" cy="260.00" r="2.5" fill="#1f6feb"><title>Merged PRs 2026-04-05: 0</title></circle>
  <circle cx="136.34" cy="260.00" r="2.5" fill="#1f6feb"><title>Merged PRs 2026-04-06: 0</title></circle>
  <circle cx="163.79" cy="260.00" r="2.5" fill="#1f6feb"><title>Merged PRs 2026-04-07: 0</title></circle>
  <circle cx="191.24" cy="260.00" r="2.5" fill="#1f6feb"><title>Merged PRs 2026-04-08: 0</title></circle>
  <circle cx="218.69" cy="260.00" r="2.5" fill="#1f6feb"><title>Merged PRs 2026-04-09: 0</title></circle>
  <circle cx="246.14" cy="260.00" r="2.5" fill="#1f6feb"><title>Merged PRs 2026-04-10: 0</title></circle>
  <circle cx="273.59" cy="260.00" r="2.5" fill="#1f6feb"><title>Merged PRs 2026-04-11: 0</title></circle>
  <circle cx="301.03" cy="260.00" r="2.5" fill="#1f6feb"><title>Merged PRs 2026-04-12: 0</title></circle>
  <circle cx="328.48" cy="260.00" r="2.5" fill="#1f6feb"><title>Merged PRs 2026-04-13: 0</title></circle>
  <circle cx="355.93" cy="260.00" r="2.5" fill="#1f6feb"><title>Merged PRs 2026-04-14: 0</title></circle>
  <circle cx="383.38" cy="260.00" r="2.5" fill="#1f6feb"><title>Merged PRs 2026-04-15: 0</title></circle>
  <circle cx="410.83" cy="260.00" r="2.5" fill="#1f6feb"><title>Merged PRs 2026-04-16: 0</title></circle>
  <circle cx="438.28" cy="260.00" r="2.5" fill="#1f6feb"><title>Merged PRs 2026-04-17: 0</title></circle>
  <circle cx="465.72" cy="260.00" r="2.5" fill="#1f6feb"><title>Merged PRs 2026-04-18: 0</title></circle>
  <circle cx="493.17" cy="260.00" r="2.5" fill="#1f6feb"><title>Merged PRs 2026-04-19: 0</title></circle>
  <circle cx="520.62" cy="260.00" r="2.5" fill="#1f6feb"><title>Merged PRs 2026-04-20: 0</title></circle>
  <circle cx="548.07" cy="260.00" r="2.5" fill="#1f6feb"><title>Merged PRs 2026-04-21: 0</title></circle>
  <circle cx="575.52" cy="260.00" r="2.5" fill="#1f6feb"><title>Merged PRs 2026-04-22: 0</title></circle>
  <circle cx="602.97" cy="260.00" r="2.5" fill="#1f6feb"><title>Merged PRs 2026-04-23: 0</title></circle>
  <circle cx="630.41" cy="260.00" r="2.5" fill="#1f6feb"><title>Merged PRs 2026-04-24: 0</title></circle>
  <circle cx="657.86" cy="260.00" r="2.5" fill="#1f6feb"><title>Merged PRs 2026-04-25: 0</title></circle>
  <circle cx="685.31" cy="260.00" r="2.5" fill="#1f6feb"><title>Merged PRs 2026-04-26: 0</title></circle>
  <circle cx="712.76" cy="260.00" r="2.5" fill="#1f6feb"><title>Merged PRs 2026-04-27: 0</title></circle>
  <circle cx="740.21" cy="260.00" r="2.5" fill="#1f6feb"><title>Merged PRs 2026-04-28: 0</title></circle>
  <circle cx="767.66" cy="260.00" r="2.5" fill="#1f6feb"><title>Merged PRs 2026-04-29: 0</title></circle>
  <circle cx="795.10" cy="260.00" r="2.5" fill="#1f6feb"><title>Merged PRs 2026-04-30: 0</title></circle>
  <circle cx="822.55" cy="260.00" r="2.5" fill="#1f6feb"><title>Merged PRs 2026-05-01: 0</title></circle>
  <circle cx="850.00" cy="260.00" r="2.5" fill="#1f6feb"><title>Merged PRs 2026-05-02: 0</title></circle>
  <path fill="none" stroke="#2ea043" stroke-width="2" stroke-linejoin="round" stroke-linecap="round" d="M54.00,260.00 L81.45,260.00 L108.90,260.00 L136.34,260.00 L163.79,260.00 L191.24,260.00 L218.69,260.00 L246.14,260.00 L273.59,260.00 L301.03,260.00 L328.48,260.00 L355.93,260.00 L383.38,260.00 L410.83,260.00 L438.28,260.00 L465.72,260.00 L493.17,260.00 L520.62,260.00 L548.07,260.00 L575.52,260.00 L602.97,260.00 L630.41,260.00 L657.86,260.00 L685.31,260.00 L712.76,260.00 L740.21,260.00 L767.66,260.00 L795.10,260.00 L822.55,260.00 L850.00,260.00"/>
  <circle cx="54.00" cy="260.00" r="2.5" fill="#2ea043"><title>Review Submissions 2026-04-03: 0</title></circle>
  <circle cx="81.45" cy="260.00" r="2.5" fill="#2ea043"><title>Review Submissions 2026-04-04: 0</title></circle>
  <circle cx="108.90" cy="260.00" r="2.5" fill="#2ea043"><title>Review Submissions 2026-04-05: 0</title></circle>
  <circle cx="136.34" cy="260.00" r="2.5" fill="#2ea043"><title>Review Submissions 2026-04-06: 0</title></circle>
  <circle cx="163.79" cy="260.00" r="2.5" fill="#2ea043"><title>Review Submissions 2026-04-07: 0</title></circle>
  <circle cx="191.24" cy="260.00" r="2.5" fill="#2ea043"><title>Review Submissions 2026-04-08: 0</title></circle>
  <circle cx="218.69" cy="260.00" r="2.5" fill="#2ea043"><title>Review Submissions 2026-04-09: 0</title></circle>
  <circle cx="246.14" cy="260.00" r="2.5" fill="#2ea043"><title>Review Submissions 2026-04-10: 0</title></circle>
  <circle cx="273.59" cy="260.00" r="2.5" fill="#2ea043"><title>Review Submissions 2026-04-11: 0</title></circle>
  <circle cx="301.03" cy="260.00" r="2.5" fill="#2ea043"><title>Review Submissions 2026-04-12: 0</title></circle>
  <circle cx="328.48" cy="260.00" r="2.5" fill="#2ea043"><title>Review Submissions 2026-04-13: 0</title></circle>
  <circle cx="355.93" cy="260.00" r="2.5" fill="#2ea043"><title>Review Submissions 2026-04-14: 0</title></circle>
  <circle cx="383.38" cy="260.00" r="2.5" fill="#2ea043"><title>Review Submissions 2026-04-15: 0</title></circle>
  <circle cx="410.83" cy="260.00" r="2.5" fill="#2ea043"><title>Review Submissions 2026-04-16: 0</title></circle>
  <circle cx="438.28" cy="260.00" r="2.5" fill="#2ea043"><title>Review Submissions 2026-04-17: 0</title></circle>
  <circle cx="465.72" cy="260.00" r="2.5" fill="#2ea043"><title>Review Submissions 2026-04-18: 0</title></circle>
  <circle cx="493.17" cy="260.00" r="2.5" fill="#2ea043"><title>Review Submissions 2026-04-19: 0</title></circle>
  <circle cx="520.62" cy="260.00" r="2.5" fill="#2ea043"><title>Review Submissions 2026-04-20: 0</title></circle>
  <circle cx="548.07" cy="260.00" r="2.5" fill="#2ea043"><title>Review Submissions 2026-04-21: 0</title></circle>
  <circle cx="575.52" cy="260.00" r="2.5" fill="#2ea043"><title>Review Submissions 2026-04-22: 0</title></circle>
  <circle cx="602.97" cy="260.00" r="2.5" fill="#2ea043"><title>Review Submissions 2026-04-23: 0</title></circle>
  <circle cx="630.41" cy="260.00" r="2.5" fill="#2ea043"><title>Review Submissions 2026-04-24: 0</title></circle>
  <circle cx="657.86" cy="260.00" r="2.5" fill="#2ea043"><title>Review Submissions 2026-04-25: 0</title></circle>
  <circle cx="685.31" cy="260.00" r="2.5" fill="#2ea043"><title>Review Submissions 2026-04-26: 0</title></circle>
  <circle cx="712.76" cy="260.00" r="2.5" fill="#2ea043"><title>Review Submissions 2026-04-27: 0</title></circle>
  <circle cx="740.21" cy="260.00" r="2.5" fill="#2ea043"><title>Review Submissions 2026-04-28: 0</title></circle>
  <circle cx="767.66" cy="260.00" r="2.5" fill="#2ea043"><title>Review Submissions 2026-04-29: 0</title></circle>
  <circle cx="795.10" cy="260.00" r="2.5" fill="#2ea043"><title>Review Submissions 2026-04-30: 0</title></circle>
  <circle cx="822.55" cy="260.00" r="2.5" fill="#2ea043"><title>Review Submissions 2026-05-01: 0</title></circle>
  <circle cx="850.00" cy="260.00" r="2.5" fill="#2ea043"><title>Review Submissions 2026-05-02: 0</title></circle>
  <text class="tick" x="54.00" y="278.00" text-anchor="middle">3</text>
  <text class="tick" x="81.45" y="278.00" text-anchor="middle">4</text>
  <text class="tick" x="108.90" y="278.00" text-anchor="middle">5</text>
  <text class="tick" x="136.34" y="278.00" text-anchor="middle">6</text>
  <text class="tick" x="163.79" y="278.00" text-anchor="middle">7</text>
  <text class="tick" x="191.24" y="278.00" text-anchor="middle">8</text>
  <text class="tick" x="218.69" y="278.00" text-anchor="middle">9</text>
  <text class="tick" x="246.14" y="278.00" text-anchor="middle">10</text>
  <text class="tick" x="273.59" y="278.00" text-anchor="middle">11</text>
  <text class="tick" x="301.03" y="278.00" text-anchor="middle">12</text>
  <text class="tick" x="328.48" y="278.00" text-anchor="middle">13</text>
  <text class="tick" x="355.93" y="278.00" text-anchor="middle">14</text>
  <text class="tick" x="383.38" y="278.00" text-anchor="middle">15</text>
  <text class="tick" x="410.83" y="278.00" text-anchor="middle">16</text>
  <text class="tick" x="438.28" y="278.00" text-anchor="middle">17</text>
  <text class="tick" x="465.72" y="278.00" text-anchor="middle">18</text>
  <text class="tick" x="493.17" y="278.00" text-anchor="middle">19</text>
  <text class="tick" x="520.62" y="278.00" text-anchor="middle">20</text>
  <text class="tick" x="548.07" y="278.00" text-anchor="middle">21</text>
  <text class="tick" x="575.52" y="278.00" text-anchor="middle">22</text>
  <text class="tick" x="602.97" y="278.00" text-anchor="middle">23</text>
  <text class="tick" x="630.41" y="278.00" text-anchor="middle">24</text>
  <text class="tick" x="657.86" y="278.00" text-anchor="middle">25</text>
  <text class="tick" x="685.31" y="278.00" text-anchor="middle">26</text>
  <text class="tick" x="712.76" y="278.00" text-anchor="middle">27</text>
  <text class="tick" x="740.21" y="278.00" text-anchor="middle">28</text>
  <text class="tick" x="767.66" y="278.00" text-anchor="middle">29</text>
  <text class="tick" x="795.10" y="278.00" text-anchor="middle">30</text>
  <text class="tick" x="822.55" y="278.00" text-anchor="middle">1</text>
  <text class="tick" x="850.00" y="278.00" text-anchor="middle">2</text>
  <text class="axis-label" x="440.00" y="290" text-anchor="middle">Days</text>
</svg>
