<?xml version="1.0" encoding="UTF-8"?>
<svg xmlns="http://www.w3.org/2000/svg" width="880" height="280" viewBox="0 0 880 280" role="img" aria-label="Review Submissions activity last 30 days">
  <defs>
    <linearGradient id="grad-4ukg50" x1="0" x2="0" y1="0" y2="1">
      <stop offset="0%" stop-color="#2ea043" stop-opacity="0.45"/>
      <stop offset="100%" stop-color="#2ea043" stop-opacity="0.02"/>
    </linearGradient>
  </defs>
  <style>
    .bg { fill: #0d1117; }
    .border { fill: none; stroke: #30363d; stroke-width: 1; }
    .title { font: 600 16px -apple-system, BlinkMacSystemFont, 'Segoe UI', sans-serif; fill: #2ea043; }
    .tick { font: 500 11px -apple-system, BlinkMacSystemFont, 'Segoe UI', sans-serif; fill: #8b949e; }
    .axis-label { font: 500 11px -apple-system, BlinkMacSystemFont, 'Segoe UI', sans-serif; fill: #8b949e; }
    .grid-dashed { stroke: #21262d; stroke-width: 1; stroke-dasharray: 3 4; }
    .axis-line { stroke: #30363d; stroke-width: 1; }
    .line { fill: none; stroke: #2ea043; stroke-width: 2; stroke-linejoin: round; stroke-linecap: round; }
    .point { fill: #2ea043; }
    .point-core { fill: #0d1117; }
  </style>
  <rect class="bg" x="0" y="0" width="880" height="280" rx="8" ry="8"/>
  <rect class="border" x="0.5" y="0.5" width="879" height="279" rx="8" ry="8"/>

  <text class="title" x="440" y="32" text-anchor="middle">Review Submissions Activity Graph</text>
  <line class="grid-dashed" x1="54" x2="850" y1="240.00" y2="240.00"/>
  <text class="tick" x="44" y="244.00" text-anchor="end">0</text>
  <line class="grid-dashed" x1="54" x2="850" y1="203.20" y2="203.20"/>
  <text class="tick" x="44" y="207.20" text-anchor="end">2</text>
  <line class="grid-dashed" x1="54" x2="850" y1="166.40" y2="166.40"/>
  <text class="tick" x="44" y="170.40" text-anchor="end">4</text>
  <line class="grid-dashed" x1="54" x2="850" y1="129.60" y2="129.60"/>
  <text class="tick" x="44" y="133.60" text-anchor="end">6</text>
  <line class="grid-dashed" x1="54" x2="850" y1="92.80" y2="92.80"/>
  <text class="tick" x="44" y="96.80" text-anchor="end">8</text>
  <line class="grid-dashed" x1="54" x2="850" y1="56.00" y2="56.00"/>
  <text class="tick" x="44" y="60.00" text-anchor="end">10</text>
  <line class="axis-line" x1="54" x2="54" y1="56" y2="240"/>
  <line class="axis-line" x1="54" x2="850" y1="240" y2="240"/>
  <path d="M54.00,203.20 L81.45,148.00 L108.90,221.60 L136.34,184.80 L163.79,240.00 L191.24,240.00 L218.69,166.40 L246.14,221.60 L273.59,221.60 L301.03,203.20 L328.48,203.20 L355.93,240.00 L383.38,203.20 L410.83,203.20 L438.28,184.80 L465.72,166.40 L493.17,240.00 L520.62,240.00 L548.07,240.00 L575.52,240.00 L602.97,203.20 L630.41,240.00 L657.86,240.00 L685.31,240.00 L712.76,166.40 L740.21,240.00 L767.66,240.00 L795.10,74.40 L822.55,166.40 L850.00,184.80 L850.00,240.00 L54.00,240.00 Z" fill="url(#grad-4ukg50)"/>
  <path class="line" d="M54.00,203.20 L81.45,148.00 L108.90,221.60 L136.34,184.80 L163.79,240.00 L191.24,240.00 L218.69,166.40 L246.14,221.60 L273.59,221.60 L301.03,203.20 L328.48,203.20 L355.93,240.00 L383.38,203.20 L410.83,203.20 L438.28,184.80 L465.72,166.40 L493.17,240.00 L520.62,240.00 L548.07,240.00 L575.52,240.00 L602.97,203.20 L630.41,240.00 L657.86,240.00 L685.31,240.00 L712.76,166.40 L740.21,240.00 L767.66,240.00 L795.10,74.40 L822.55,166.40 L850.00,184.80"/>
  <circle class="point" cx="54.00" cy="203.20" r="3.5"><title>2026-03-24: 2</title></circle>
  <circle class="point-core" cx="54.00" cy="203.20" r="1.5"/>
  <circle class="point" cx="81.45" cy="148.00" r="3.5"><title>2026-03-25: 5</title></circle>
  <circle class="point-core" cx="81.45" cy="148.00" r="1.5"/>
  <circle class="point" cx="108.90" cy="221.60" r="3.5"><title>2026-03-26: 1</title></circle>
  <circle class="point-core" cx="108.90" cy="221.60" r="1.5"/>
  <circle class="point" cx="136.34" cy="184.80" r="3.5"><title>2026-03-27: 3</title></circle>
  <circle class="point-core" cx="136.34" cy="184.80" r="1.5"/>
  <circle class="point" cx="163.79" cy="240.00" r="3.5"><title>2026-03-28: 0</title></circle>
  <circle class="point-core" cx="163.79" cy="240.00" r="1.5"/>
  <circle class="point" cx="191.24" cy="240.00" r="3.5"><title>2026-03-29: 0</title></circle>
  <circle class="point-core" cx="191.24" cy="240.00" r="1.5"/>
  <circle class="point" cx="218.69" cy="166.40" r="3.5"><title>2026-03-30: 4</title></circle>
  <circle class="point-core" cx="218.69" cy="166.40" r="1.5"/>
  <circle class="point" cx="246.14" cy="221.60" r="3.5"><title>2026-03-31: 1</title></circle>
  <circle class="point-core" cx="246.14" cy="221.60" r="1.5"/>
  <circle class="point" cx="273.59" cy="221.60" r="3.5"><title>2026-04-01: 1</title></circle>
  <circle class="point-core" cx="273.59" cy="221.60" r="1.5"/>
  <circle class="point" cx="301.03" cy="203.20" r="3.5"><title>2026-04-02: 2</title></circle>
  <circle class="point-core" cx="301.03" cy="203.20" r="1.5"/>
  <circle class="point" cx="328.48" cy="203.20" r="3.5"><title>2026-04-03: 2</title></circle>
  <circle class="point-core" cx="328.48" cy="203.20" r="1.5"/>
  <circle class="point" cx="355.93" cy="240.00" r="3.5"><title>2026-04-04: 0</title></circle>
  <circle class="point-core" cx="355.93" cy="240.00" r="1.5"/>
  <circle class="point" cx="383.38" cy="203.20" r="3.5"><title>2026-04-05: 2</title></circle>
  <circle class="point-core" cx="383.38" cy="203.20" r="1.5"/>
  <circle class="point" cx="410.83" cy="203.20" r="3.5"><title>2026-04-06: 2</title></circle>
  <circle class="point-core" cx="410.83" cy="203.20" r="1.5"/>
  <circle class="point" cx="438.28" cy="184.80" r="3.5"><title>2026-04-07: 3</title></circle>
  <circle class="point-core" cx="438.28" cy="184.80" r="1.5"/>
  <circle class="point" cx="465.72" cy="166.40" r="3.5"><title>2026-04-08: 4</title></circle>
  <circle class="point-core" cx="465.72" cy="166.40" r="1.5"/>
  <circle class="point" cx="493.17" cy="240.00" r="3.5"><title>2026-04-09: 0</title></circle>
  <circle class="point-core" cx="493.17" cy="240.00" r="1.5"/>
  <circle class="point" cx="520.62" cy="240.00" r="3.5"><title>2026-04-10: 0</title></circle>
  <circle class="point-core" cx="520.62" cy="240.00" r="1.5"/>
  <circle class="point" cx="548.07" cy="240.00" r="3.5"><title>2026-04-11: 0</title></circle>
  <circle class="point-core" cx="548.07" cy="240.00" r="1.5"/>
  <circle class="point" cx="575.52" cy="240.00" r="3.5"><title>2026-04-12: 0</title></circle>
  <circle class="point-core" cx="575.52" cy="240.00" r="1.5"/>
  <circle class="point" cx="602.97" cy="203.20" r="3.5"><title>2026-04-13: 2</title></circle>
  <circle class="point-core" cx="602.97" cy="203.20" r="1.5"/>
  <circle class="point" cx="630.41" cy="240.00" r="3.5"><title>2026-04-14: 0</title></circle>
  <circle class="point-core" cx="630.41" cy="240.00" r="1.5"/>
  <circle class="point" cx="657.86" cy="240.00" r="3.5"><title>2026-04-15: 0</title></circle>
  <circle class="point-core" cx="657.86" cy="240.00" r="1.5"/>
  <circle class="point" cx="685.31" cy="240.00" r="3.5"><title>2026-04-16: 0</title></circle>
  <circle class="point-core" cx="685.31" cy="240.00" r="1.5"/>
  <circle class="point" cx="712.76" cy="166.40" r="3.5"><title>2026-04-17: 4</title></circle>
  <circle class="point-core" cx="712.76" cy="166.40" r="1.5"/>
  <circle class="point" cx="740.21" cy="240.00" r="3.5"><title>2026-04-18: 0</title></circle>
  <circle class="point-core" cx="740.21" cy="240.00" r="1.5"/>
  <circle class="point" cx="767.66" cy="240.00" r="3.5"><title>2026-04-19: 0</title></circle>
  <circle class="point-core" cx="767.66" cy="240.00" r="1.5"/>
  <circle class="point" cx="795.10" cy="74.40" r="3.5"><title>2026-04-20: 9</title></circle>
  <circle class="point-core" cx="795.10" cy="74.40" r="1.5"/>
  <circle class="point" cx="822.55" cy="166.40" r="3.5"><title>2026-04-21: 4</title></circle>
  <circle class="point-core" cx="822.55" cy="166.40" r="1.5"/>
  <circle class="point" cx="850.00" cy="184.80" r="3.5"><title>2026-04-22: 3</title></circle>
  <circle class="point-core" cx="850.00" cy="184.80" r="1.5"/>
  <text class="tick" x="54.00" y="258.00" text-anchor="middle">24</text>
  <text class="tick" x="81.45" y="258.00" text-anchor="middle">25</text>
  <text class="tick" x="108.90" y="258.00" text-anchor="middle">26</text>
  <text class="tick" x="136.34" y="258.00" text-anchor="middle">27</text>
  <text class="tick" x="163.79" y="258.00" text-anchor="middle">28</text>
  <text class="tick" x="191.24" y="258.00" text-anchor="middle">29</text>
  <text class="tick" x="218.69" y="258.00" text-anchor="middle">30</text>
  <text class="tick" x="246.14" y="258.00" text-anchor="middle">31</text>
  <text class="tick" x="273.59" y="258.00" text-anchor="middle">1</text>
  <text class="tick" x="301.03" y="258.00" text-anchor="middle">2</text>
  <text class="tick" x="328.48" y="258.00" text-anchor="middle">3</text>
  <text class="tick" x="355.93" y="258.00" text-anchor="middle">4</text>
  <text class="tick" x="383.38" y="258.00" text-anchor="middle">5</text>
  <text class="tick" x="410.83" y="258.00" text-anchor="middle">6</text>
  <text class="tick" x="438.28" y="258.00" text-anchor="middle">7</text>
  <text class="tick" x="465.72" y="258.00" text-anchor="middle">8</text>
  <text class="tick" x="493.17" y="258.00" text-anchor="middle">9</text>
  <text class="tick" x="520.62" y="258.00" text-anchor="middle">10</text>
  <text class="tick" x="548.07" y="258.00" text-anchor="middle">11</text>
  <text class="tick" x="575.52" y="258.00" text-anchor="middle">12</text>
  <text class="tick" x="602.97" y="258.00" text-anchor="middle">13</text>
  <text class="tick" x="630.41" y="258.00" text-anchor="middle">14</text>
  <text class="tick" x="657.86" y="258.00" text-anchor="middle">15</text>
  <text class="tick" x="685.31" y="258.00" text-anchor="middle">16</text>
  <text class="tick" x="712.76" y="258.00" text-anchor="middle">17</text>
  <text class="tick" x="740.21" y="258.00" text-anchor="middle">18</text>
  <text class="tick" x="767.66" y="258.00" text-anchor="middle">19</text>
  <text class="tick" x="795.10" y="258.00" text-anchor="middle">20</text>
  <text class="tick" x="822.55" y="258.00" text-anchor="middle">21</text>
  <text class="tick" x="850.00" y="258.00" text-anchor="middle">22</text>
  <text class="axis-label" x="20.00" y="148.00" text-anchor="middle" transform="rotate(-90 20.00 148.00)">Review Submissions</text>
  <text class="axis-label" x="440.00" y="270" text-anchor="middle">Days</text>
</svg>
